<mxfile host="app.diagrams.net" agent="Mozilla/5.0 (Windows NT 10.0; Win64; x64) AppleWebKit/537.36 (KHTML, like Gecko) Chrome/131.0.0.0 Safari/537.36" version="26.0.1">
  <diagram name="Page-1" id="QpDMfb8Ol3Zpuz9XaBg1">
    <mxGraphModel dx="6140" dy="6430" grid="1" gridSize="10" guides="1" tooltips="1" connect="1" arrows="1" fold="1" page="1" pageScale="1" pageWidth="850" pageHeight="1100" math="0" shadow="0">
      <root>
        <mxCell id="0" />
        <mxCell id="1" parent="0" />
        <mxCell id="qCDn8xHbFD4i_Utl2qND-5" value="Text" style="text;html=1;align=center;verticalAlign=middle;resizable=0;points=[];autosize=1;strokeColor=none;fillColor=none;" vertex="1" parent="1">
          <mxGeometry x="-3495" y="-1892" width="50" height="30" as="geometry" />
        </mxCell>
        <UserObject label="" plantUmlData="{&#xa;  &quot;data&quot;: &quot;@startuml\nstart\n\n:Understand Your Objectives;\nnote right\n- Purpose: Assist 8th-grade students.\n- Scope: First two lessons.\n- Audience: Age-appropriate language.\nend note\n\n:Collect and Prepare Your Dataset;\n:Extract key information \nfrom \&quot;Sources of History\&quot; \nand \&quot;Europe and India\&quot;;\n:Structure the data as Q&amp;A pairs;\n\n:Choose a Platform or Framework;\nif (Platform Type?) then (No-Code/Low-Code)\n  :Use Dialogflow or Microsoft Bot Framework;\nelse (Programming Libraries)\n  :Use Python with Hugging Face Transformers;\nendif\n\n:Design the Chatbot Architecture;\npartition \&quot;Chatbot Components\&quot; {\n  :Input Processing;\n  :Knowledge Base;\n  :Response Generator;\n  :Output Processing;\n}\n\n:Build the Model;\nif (Model Type?) then (Pre-trained)\n  :Fine-tune GPT-3/BERT;\nelse (Custom)\n  :Train using PyTorch or TensorFlow;\n  :Preprocess data;\n  :Split data into training and testing sets;\n  :Train and evaluate the model;\nendif\n\n:Test the Chatbot;\n:Verify accuracy, simplicity, and responsiveness;\n\n:Deploy the Chatbot;\nif (Deployment Platform?) then (Web Interface)\n  :Use Flask or Django;\nelse if (Mobile App)\n  :Use React Native/Flutter;\nelse (Messaging Platforms)\n  :Integrate with WhatsApp, Telegram, or others;\nendif\n\n:Iterate and Improve;\n:Gather feedback from users;\n:Update Q&amp;A base and improve responses;\n\nstop\n@enduml\n&quot;,&#xa;  &quot;format&quot;: &quot;svg&quot;&#xa;}" id="qCDn8xHbFD4i_Utl2qND-6">
          <mxCell style="shape=image;noLabel=1;verticalAlign=top;aspect=fixed;imageAspect=0;image=data:image/svg+xml,PD94bWwgdmVyc2lvbj0iMS4wIiBlbmNvZGluZz0idXMtYXNjaWkiIHN0YW5kYWxvbmU9Im5vIj8+PHN2ZyB4bWxucz0iaHR0cDovL3d3dy53My5vcmcvMjAwMC9zdmciIHhtbG5zOnhsaW5rPSJodHRwOi8vd3d3LnczLm9yZy8xOTk5L3hsaW5rIiBjb250ZW50U3R5bGVUeXBlPSJ0ZXh0L2NzcyIgaGVpZ2h0PSIxNTc0cHgiIHByZXNlcnZlQXNwZWN0UmF0aW89Im5vbmUiIHN0eWxlPSJ3aWR0aDo3NjJweDtoZWlnaHQ6MTU3NHB4O2JhY2tncm91bmQ6I0ZGRkZGRjsiIHZlcnNpb249IjEuMSIgdmlld0JveD0iMCAwIDc2MiAxNTc0IiB3aWR0aD0iNzYycHgiIHpvb21BbmRQYW49Im1hZ25pZnkiPjxkZWZzLz48Zz48ZWxsaXBzZSBjeD0iMzU4LjUiIGN5PSIyMCIgZmlsbD0iIzIyMjIyMiIgcng9IjEwIiByeT0iMTAiIHN0eWxlPSJzdHJva2U6IzIyMjIyMjtzdHJva2Utd2lkdGg6MS4wOyIvPjxwYXRoIGQ9Ik00NzYsNDAuNTUwOCBMNDc2LDYyLjQyMTkgTDQ1Niw2Ni40MjE5IEw0NzYsNzAuNDIxOSBMNDc2LDkyLjI5MyBBMCwwIDAgMCAwIDQ3Niw5Mi4yOTMgTDc1MCw5Mi4yOTMgQTAsMCAwIDAgMCA3NTAsOTIuMjkzIEw3NTAsNTAuNTUwOCBMNzQwLDQwLjU1MDggTDQ3Niw0MC41NTA4IEEwLDAgMCAwIDAgNDc2LDQwLjU1MDggIiBmaWxsPSIjRkVGRkREIiBzdHlsZT0ic3Ryb2tlOiMxODE4MTg7c3Ryb2tlLXdpZHRoOjAuNTsiLz48cGF0aCBkPSJNNzQwLDQwLjU1MDggTDc0MCw1MC41NTA4IEw3NTAsNTAuNTUwOCBMNzQwLDQwLjU1MDggIiBmaWxsPSIjRkVGRkREIiBzdHlsZT0ic3Ryb2tlOiMxODE4MTg7c3Ryb2tlLXdpZHRoOjAuNTsiLz48dGV4dCBmaWxsPSIjMDAwMDAwIiBmb250LWZhbWlseT0ic2Fucy1zZXJpZiIgZm9udC1zaXplPSIxMyIgbGVuZ3RoQWRqdXN0PSJzcGFjaW5nIiB0ZXh0TGVuZ3RoPSIyNTIiIHg9IjQ4MiIgeT0iNTcuODM5OCI+LSBQdXJwb3NlOiBBc3Npc3QgOHRoLWdyYWRlIHN0dWRlbnRzLjwvdGV4dD48dGV4dCBmaWxsPSIjMDAwMDAwIiBmb250LWZhbWlseT0ic2Fucy1zZXJpZiIgZm9udC1zaXplPSIxMyIgbGVuZ3RoQWRqdXN0PSJzcGFjaW5nIiB0ZXh0TGVuZ3RoPSIxODIiIHg9IjQ4MiIgeT0iNzEuNzUzOSI+LSBTY29wZTogRmlyc3QgdHdvIGxlc3NvbnMuPC90ZXh0Pjx0ZXh0IGZpbGw9IiMwMDAwMDAiIGZvbnQtZmFtaWx5PSJzYW5zLXNlcmlmIiBmb250LXNpemU9IjEzIiBsZW5ndGhBZGp1c3Q9InNwYWNpbmciIHRleHRMZW5ndGg9IjI1MyIgeD0iNDgyIiB5PSI4NS42NjgiPi0gQXVkaWVuY2U6IEFnZS1hcHByb3ByaWF0ZSBsYW5ndWFnZS48L3RleHQ+PHJlY3QgZmlsbD0iI0YxRjFGMSIgaGVpZ2h0PSIzMi44NDM4IiByeD0iMTIuNSIgcnk9IjEyLjUiIHN0eWxlPSJzdHJva2U6IzE4MTgxODtzdHJva2Utd2lkdGg6MC41OyIgd2lkdGg9IjE5NSIgeD0iMjYxIiB5PSI1MCIvPjx0ZXh0IGZpbGw9IiMwMDAwMDAiIGZvbnQtZmFtaWx5PSJzYW5zLXNlcmlmIiBmb250LXNpemU9IjEyIiBsZW5ndGhBZGp1c3Q9InNwYWNpbmciIHRleHRMZW5ndGg9IjE3NSIgeD0iMjcxIiB5PSI3MS4zNDM4Ij5VbmRlcnN0YW5kIFlvdXIgT2JqZWN0aXZlczwvdGV4dD48cmVjdCBmaWxsPSIjRjFGMUYxIiBoZWlnaHQ9IjMyLjg0MzgiIHJ4PSIxMi41IiByeT0iMTIuNSIgc3R5bGU9InN0cm9rZTojMTgxODE4O3N0cm9rZS13aWR0aDowLjU7IiB3aWR0aD0iMjM0IiB4PSIyNDEuNSIgeT0iMTEyLjI5MyIvPjx0ZXh0IGZpbGw9IiMwMDAwMDAiIGZvbnQtZmFtaWx5PSJzYW5zLXNlcmlmIiBmb250LXNpemU9IjEyIiBsZW5ndGhBZGp1c3Q9InNwYWNpbmciIHRleHRMZW5ndGg9IjIxNCIgeD0iMjUxLjUiIHk9IjEzMy42MzY3Ij5Db2xsZWN0IGFuZCBQcmVwYXJlIFlvdXIgRGF0YXNldDwvdGV4dD48cmVjdCBmaWxsPSIjRjFGMUYxIiBoZWlnaHQ9IjU4LjUzMTMiIHJ4PSIxMi41IiByeT0iMTIuNSIgc3R5bGU9InN0cm9rZTojMTgxODE4O3N0cm9rZS13aWR0aDowLjU7IiB3aWR0aD0iMTkwIiB4PSIyNjMuNSIgeT0iMTY1LjEzNjciLz48dGV4dCBmaWxsPSIjMDAwMDAwIiBmb250LWZhbWlseT0ic2Fucy1zZXJpZiIgZm9udC1zaXplPSIxMiIgbGVuZ3RoQWRqdXN0PSJzcGFjaW5nIiB0ZXh0TGVuZ3RoPSIxNDkiIHg9IjI3My41IiB5PSIxODYuNDgwNSI+RXh0cmFjdCBrZXkgaW5mb3JtYXRpb248L3RleHQ+PHRleHQgZmlsbD0iIzAwMDAwMCIgZm9udC1mYW1pbHk9InNhbnMtc2VyaWYiIGZvbnQtc2l6ZT0iMTIiIGxlbmd0aEFkanVzdD0ic3BhY2luZyIgdGV4dExlbmd0aD0iMTY0IiB4PSIyNzMuNSIgeT0iMTk5LjMyNDIiPmZyb20gIlNvdXJjZXMgb2YgSGlzdG9yeSI8L3RleHQ+PHRleHQgZmlsbD0iIzAwMDAwMCIgZm9udC1mYW1pbHk9InNhbnMtc2VyaWYiIGZvbnQtc2l6ZT0iMTIiIGxlbmd0aEFkanVzdD0ic3BhY2luZyIgdGV4dExlbmd0aD0iMTQ2IiB4PSIyNzMuNSIgeT0iMjEyLjE2OCI+YW5kICJFdXJvcGUgYW5kIEluZGlhIjwvdGV4dD48cmVjdCBmaWxsPSIjRjFGMUYxIiBoZWlnaHQ9IjMyLjg0MzgiIHJ4PSIxMi41IiByeT0iMTIuNSIgc3R5bGU9InN0cm9rZTojMTgxODE4O3N0cm9rZS13aWR0aDowLjU7IiB3aWR0aD0iMjI2IiB4PSIyNDUuNSIgeT0iMjQzLjY2OCIvPjx0ZXh0IGZpbGw9IiMwMDAwMDAiIGZvbnQtZmFtaWx5PSJzYW5zLXNlcmlmIiBmb250LXNpemU9IjEyIiBsZW5ndGhBZGp1c3Q9InNwYWNpbmciIHRleHRMZW5ndGg9IjIwNiIgeD0iMjU1LjUiIHk9IjI2NS4wMTE3Ij5TdHJ1Y3R1cmUgdGhlIGRhdGEgYXMgUSZhbXA7QSBwYWlyczwvdGV4dD48cmVjdCBmaWxsPSIjRjFGMUYxIiBoZWlnaHQ9IjMyLjg0MzgiIHJ4PSIxMi41IiByeT0iMTIuNSIgc3R5bGU9InN0cm9rZTojMTgxODE4O3N0cm9rZS13aWR0aDowLjU7IiB3aWR0aD0iMjE4IiB4PSIyNDkuNSIgeT0iMjk2LjUxMTciLz48dGV4dCBmaWxsPSIjMDAwMDAwIiBmb250LWZhbWlseT0ic2Fucy1zZXJpZiIgZm9udC1zaXplPSIxMiIgbGVuZ3RoQWRqdXN0PSJzcGFjaW5nIiB0ZXh0TGVuZ3RoPSIxOTgiIHg9IjI1OS41IiB5PSIzMTcuODU1NSI+Q2hvb3NlIGEgUGxhdGZvcm0gb3IgRnJhbWV3b3JrPC90ZXh0Pjxwb2x5Z29uIGZpbGw9IiNGMUYxRjEiIHBvaW50cz0iMzE2LjUsMzQ5LjM1NTUsNDAwLjUsMzQ5LjM1NTUsNDEyLjUsMzYxLjM1NTUsNDAwLjUsMzczLjM1NTUsMzE2LjUsMzczLjM1NTUsMzA0LjUsMzYxLjM1NTUsMzE2LjUsMzQ5LjM1NTUiIHN0eWxlPSJzdHJva2U6IzE4MTgxODtzdHJva2Utd2lkdGg6MC41OyIvPjx0ZXh0IGZpbGw9IiMwMDAwMDAiIGZvbnQtZmFtaWx5PSJzYW5zLXNlcmlmIiBmb250LXNpemU9IjExIiBsZW5ndGhBZGp1c3Q9InNwYWNpbmciIHRleHRMZW5ndGg9Ijg0IiB4PSIzMTYuNSIgeT0iMzY1Ljg2NzIiPlBsYXRmb3JtIFR5cGU/PC90ZXh0Pjx0ZXh0IGZpbGw9IiMwMDAwMDAiIGZvbnQtZmFtaWx5PSJzYW5zLXNlcmlmIiBmb250LXNpemU9IjExIiBsZW5ndGhBZGp1c3Q9InNwYWNpbmciIHRleHRMZW5ndGg9Ijk2IiB4PSIyMDguNSIgeT0iMzU5Ljk4MDUiPk5vLUNvZGUvTG93LUNvZGU8L3RleHQ+PHRleHQgZmlsbD0iIzAwMDAwMCIgZm9udC1mYW1pbHk9InNhbnMtc2VyaWYiIGZvbnQtc2l6ZT0iMTEiIGxlbmd0aEFkanVzdD0ic3BhY2luZyIgdGV4dExlbmd0aD0iMTI2IiB4PSI0MTIuNSIgeT0iMzU5Ljk4MDUiPlByb2dyYW1taW5nIExpYnJhcmllczwvdGV4dD48cmVjdCBmaWxsPSIjRjFGMUYxIiBoZWlnaHQ9IjMyLjg0MzgiIHJ4PSIxMi41IiByeT0iMTIuNSIgc3R5bGU9InN0cm9rZTojMTgxODE4O3N0cm9rZS13aWR0aDowLjU7IiB3aWR0aD0iMjg4IiB4PSI1OS41IiB5PSIzODMuMzU1NSIvPjx0ZXh0IGZpbGw9IiMwMDAwMDAiIGZvbnQtZmFtaWx5PSJzYW5zLXNlcmlmIiBmb250LXNpemU9IjEyIiBsZW5ndGhBZGp1c3Q9InNwYWNpbmciIHRleHRMZW5ndGg9IjI2OCIgeD0iNjkuNSIgeT0iNDA0LjY5OTIiPlVzZSBEaWFsb2dmbG93IG9yIE1pY3Jvc29mdCBCb3QgRnJhbWV3b3JrPC90ZXh0PjxyZWN0IGZpbGw9IiNGMUYxRjEiIGhlaWdodD0iMzIuODQzOCIgcng9IjEyLjUiIHJ5PSIxMi41IiBzdHlsZT0ic3Ryb2tlOiMxODE4MTg7c3Ryb2tlLXdpZHRoOjAuNTsiIHdpZHRoPSIyOTIiIHg9IjM2Ny41IiB5PSIzODMuMzU1NSIvPjx0ZXh0IGZpbGw9IiMwMDAwMDAiIGZvbnQtZmFtaWx5PSJzYW5zLXNlcmlmIiBmb250LXNpemU9IjEyIiBsZW5ndGhBZGp1c3Q9InNwYWNpbmciIHRleHRMZW5ndGg9IjI3MiIgeD0iMzc3LjUiIHk9IjQwNC42OTkyIj5Vc2UgUHl0aG9uIHdpdGggSHVnZ2luZyBGYWNlIFRyYW5zZm9ybWVyczwvdGV4dD48cG9seWdvbiBmaWxsPSIjRjFGMUYxIiBwb2ludHM9IjM1OC41LDQyMi4xOTkyLDM3MC41LDQzNC4xOTkyLDM1OC41LDQ0Ni4xOTkyLDM0Ni41LDQzNC4xOTkyLDM1OC41LDQyMi4xOTkyIiBzdHlsZT0ic3Ryb2tlOiMxODE4MTg7c3Ryb2tlLXdpZHRoOjAuNTsiLz48cmVjdCBmaWxsPSIjRjFGMUYxIiBoZWlnaHQ9IjMyLjg0MzgiIHJ4PSIxMi41IiByeT0iMTIuNSIgc3R5bGU9InN0cm9rZTojMTgxODE4O3N0cm9rZS13aWR0aDowLjU7IiB3aWR0aD0iMjI1IiB4PSIyNDYiIHk9IjQ2Ni4xOTkyIi8+PHRleHQgZmlsbD0iIzAwMDAwMCIgZm9udC1mYW1pbHk9InNhbnMtc2VyaWYiIGZvbnQtc2l6ZT0iMTIiIGxlbmd0aEFkanVzdD0ic3BhY2luZyIgdGV4dExlbmd0aD0iMjA1IiB4PSIyNTYiIHk9IjQ4Ny41NDMiPkRlc2lnbiB0aGUgQ2hhdGJvdCBBcmNoaXRlY3R1cmU8L3RleHQ+PHJlY3QgZmlsbD0ibm9uZSIgaGVpZ2h0PSIyMzguMzU5NCIgc3R5bGU9InN0cm9rZTojMDAwMDAwO3N0cm9rZS13aWR0aDoxLjU7IiB3aWR0aD0iMTY0IiB4PSIyNzYuNSIgeT0iNTA5LjA0MyIvPjxwYXRoIGQ9Ik00MTMuNSw1MDkuMDQzIEw0MTMuNSw1MTcuMDI3MyBMNDAzLjUsNTI3LjAyNzMgTDI3Ni41LDUyNy4wMjczICIgZmlsbD0ibm9uZSIgc3R5bGU9InN0cm9rZTojMDAwMDAwO3N0cm9rZS13aWR0aDoxLjU7Ii8+PHRleHQgZmlsbD0iIzAwMDAwMCIgZm9udC1mYW1pbHk9InNhbnMtc2VyaWYiIGZvbnQtc2l6ZT0iMTQiIGxlbmd0aEFkanVzdD0ic3BhY2luZyIgdGV4dExlbmd0aD0iMTI3IiB4PSIyNzkuNSIgeT0iNTIzLjI3NzMiPkNoYXRib3QgQ29tcG9uZW50czwvdGV4dD48cmVjdCBmaWxsPSIjRjFGMUYxIiBoZWlnaHQ9IjMyLjg0MzgiIHJ4PSIxMi41IiByeT0iMTIuNSIgc3R5bGU9InN0cm9rZTojMTgxODE4O3N0cm9rZS13aWR0aDowLjU7IiB3aWR0aD0iMTI3IiB4PSIyOTUiIHk9IjU0NC4wMjczIi8+PHRleHQgZmlsbD0iIzAwMDAwMCIgZm9udC1mYW1pbHk9InNhbnMtc2VyaWYiIGZvbnQtc2l6ZT0iMTIiIGxlbmd0aEFkanVzdD0ic3BhY2luZyIgdGV4dExlbmd0aD0iMTA3IiB4PSIzMDUiIHk9IjU2NS4zNzExIj5JbnB1dCBQcm9jZXNzaW5nPC90ZXh0PjxyZWN0IGZpbGw9IiNGMUYxRjEiIGhlaWdodD0iMzIuODQzOCIgcng9IjEyLjUiIHJ5PSIxMi41IiBzdHlsZT0ic3Ryb2tlOiMxODE4MTg7c3Ryb2tlLXdpZHRoOjAuNTsiIHdpZHRoPSIxMTQiIHg9IjMwMS41IiB5PSI1OTYuODcxMSIvPjx0ZXh0IGZpbGw9IiMwMDAwMDAiIGZvbnQtZmFtaWx5PSJzYW5zLXNlcmlmIiBmb250LXNpemU9IjEyIiBsZW5ndGhBZGp1c3Q9InNwYWNpbmciIHRleHRMZW5ndGg9Ijk0IiB4PSIzMTEuNSIgeT0iNjE4LjIxNDgiPktub3dsZWRnZSBCYXNlPC90ZXh0PjxyZWN0IGZpbGw9IiNGMUYxRjEiIGhlaWdodD0iMzIuODQzOCIgcng9IjEyLjUiIHJ5PSIxMi41IiBzdHlsZT0ic3Ryb2tlOiMxODE4MTg7c3Ryb2tlLXdpZHRoOjAuNTsiIHdpZHRoPSIxNDQiIHg9IjI4Ni41IiB5PSI2NDkuNzE0OCIvPjx0ZXh0IGZpbGw9IiMwMDAwMDAiIGZvbnQtZmFtaWx5PSJzYW5zLXNlcmlmIiBmb250LXNpemU9IjEyIiBsZW5ndGhBZGp1c3Q9InNwYWNpbmciIHRleHRMZW5ndGg9IjEyNCIgeD0iMjk2LjUiIHk9IjY3MS4wNTg2Ij5SZXNwb25zZSBHZW5lcmF0b3I8L3RleHQ+PHJlY3QgZmlsbD0iI0YxRjFGMSIgaGVpZ2h0PSIzMi44NDM4IiByeD0iMTIuNSIgcnk9IjEyLjUiIHN0eWxlPSJzdHJva2U6IzE4MTgxODtzdHJva2Utd2lkdGg6MC41OyIgd2lkdGg9IjEzNCIgeD0iMjkxLjUiIHk9IjcwMi41NTg2Ii8+PHRleHQgZmlsbD0iIzAwMDAwMCIgZm9udC1mYW1pbHk9InNhbnMtc2VyaWYiIGZvbnQtc2l6ZT0iMTIiIGxlbmd0aEFkanVzdD0ic3BhY2luZyIgdGV4dExlbmd0aD0iMTE0IiB4PSIzMDEuNSIgeT0iNzIzLjkwMjMiPk91dHB1dCBQcm9jZXNzaW5nPC90ZXh0PjxyZWN0IGZpbGw9IiNGMUYxRjEiIGhlaWdodD0iMzIuODQzOCIgcng9IjEyLjUiIHJ5PSIxMi41IiBzdHlsZT0ic3Ryb2tlOiMxODE4MTg7c3Ryb2tlLXdpZHRoOjAuNTsiIHdpZHRoPSIxMTkiIHg9IjI5OSIgeT0iNzY3LjQwMjMiLz48dGV4dCBmaWxsPSIjMDAwMDAwIiBmb250LWZhbWlseT0ic2Fucy1zZXJpZiIgZm9udC1zaXplPSIxMiIgbGVuZ3RoQWRqdXN0PSJzcGFjaW5nIiB0ZXh0TGVuZ3RoPSI5OSIgeD0iMzA5IiB5PSI3ODguNzQ2MSI+QnVpbGQgdGhlIE1vZGVsPC90ZXh0Pjxwb2x5Z29uIGZpbGw9IiNGMUYxRjEiIHBvaW50cz0iMzI1LjUsODIwLjI0NjEsMzkxLjUsODIwLjI0NjEsNDAzLjUsODMyLjI0NjEsMzkxLjUsODQ0LjI0NjEsMzI1LjUsODQ0LjI0NjEsMzEzLjUsODMyLjI0NjEsMzI1LjUsODIwLjI0NjEiIHN0eWxlPSJzdHJva2U6IzE4MTgxODtzdHJva2Utd2lkdGg6MC41OyIvPjx0ZXh0IGZpbGw9IiMwMDAwMDAiIGZvbnQtZmFtaWx5PSJzYW5zLXNlcmlmIiBmb250LXNpemU9IjExIiBsZW5ndGhBZGp1c3Q9InNwYWNpbmciIHRleHRMZW5ndGg9IjY2IiB4PSIzMjUuNSIgeT0iODM2Ljc1NzgiPk1vZGVsIFR5cGU/PC90ZXh0Pjx0ZXh0IGZpbGw9IiMwMDAwMDAiIGZvbnQtZmFtaWx5PSJzYW5zLXNlcmlmIiBmb250LXNpemU9IjExIiBsZW5ndGhBZGp1c3Q9InNwYWNpbmciIHRleHRMZW5ndGg9IjY2IiB4PSIyNDcuNSIgeT0iODMwLjg3MTEiPlByZS10cmFpbmVkPC90ZXh0Pjx0ZXh0IGZpbGw9IiMwMDAwMDAiIGZvbnQtZmFtaWx5PSJzYW5zLXNlcmlmIiBmb250LXNpemU9IjExIiBsZW5ndGhBZGp1c3Q9InNwYWNpbmciIHRleHRMZW5ndGg9IjM2IiB4PSI0MDMuNSIgeT0iODMwLjg3MTEiPkN1c3RvbTwvdGV4dD48cmVjdCBmaWxsPSIjRjFGMUYxIiBoZWlnaHQ9IjMyLjg0MzgiIHJ4PSIxMi41IiByeT0iMTIuNSIgc3R5bGU9InN0cm9rZTojMTgxODE4O3N0cm9rZS13aWR0aDowLjU7IiB3aWR0aD0iMTUwIiB4PSIxNjQiIHk9Ijg1NC4yNDYxIi8+PHRleHQgZmlsbD0iIzAwMDAwMCIgZm9udC1mYW1pbHk9InNhbnMtc2VyaWYiIGZvbnQtc2l6ZT0iMTIiIGxlbmd0aEFkanVzdD0ic3BhY2luZyIgdGV4dExlbmd0aD0iMTMwIiB4PSIxNzQiIHk9Ijg3NS41ODk4Ij5GaW5lLXR1bmUgR1BULTMvQkVSVDwvdGV4dD48cmVjdCBmaWxsPSIjRjFGMUYxIiBoZWlnaHQ9IjMyLjg0MzgiIHJ4PSIxMi41IiByeT0iMTIuNSIgc3R5bGU9InN0cm9rZTojMTgxODE4O3N0cm9rZS13aWR0aDowLjU7IiB3aWR0aD0iMjM4IiB4PSIzNTkiIHk9Ijg1NC4yNDYxIi8+PHRleHQgZmlsbD0iIzAwMDAwMCIgZm9udC1mYW1pbHk9InNhbnMtc2VyaWYiIGZvbnQtc2l6ZT0iMTIiIGxlbmd0aEFkanVzdD0ic3BhY2luZyIgdGV4dExlbmd0aD0iMjE4IiB4PSIzNjkiIHk9Ijg3NS41ODk4Ij5UcmFpbiB1c2luZyBQeVRvcmNoIG9yIFRlbnNvckZsb3c8L3RleHQ+PHJlY3QgZmlsbD0iI0YxRjFGMSIgaGVpZ2h0PSIzMi44NDM4IiByeD0iMTIuNSIgcnk9IjEyLjUiIHN0eWxlPSJzdHJva2U6IzE4MTgxODtzdHJva2Utd2lkdGg6MC41OyIgd2lkdGg9IjEyMiIgeD0iNDE3IiB5PSI5MDcuMDg5OCIvPjx0ZXh0IGZpbGw9IiMwMDAwMDAiIGZvbnQtZmFtaWx5PSJzYW5zLXNlcmlmIiBmb250LXNpemU9IjEyIiBsZW5ndGhBZGp1c3Q9InNwYWNpbmciIHRleHRMZW5ndGg9IjEwMiIgeD0iNDI3IiB5PSI5MjguNDMzNiI+UHJlcHJvY2VzcyBkYXRhPC90ZXh0PjxyZWN0IGZpbGw9IiNGMUYxRjEiIGhlaWdodD0iMzIuODQzOCIgcng9IjEyLjUiIHJ5PSIxMi41IiBzdHlsZT0ic3Ryb2tlOiMxODE4MTg7c3Ryb2tlLXdpZHRoOjAuNTsiIHdpZHRoPSIyODgiIHg9IjMzNCIgeT0iOTU5LjkzMzYiLz48dGV4dCBmaWxsPSIjMDAwMDAwIiBmb250LWZhbWlseT0ic2Fucy1zZXJpZiIgZm9udC1zaXplPSIxMiIgbGVuZ3RoQWRqdXN0PSJzcGFjaW5nIiB0ZXh0TGVuZ3RoPSIyNjgiIHg9IjM0NCIgeT0iOTgxLjI3NzMiPlNwbGl0IGRhdGEgaW50byB0cmFpbmluZyBhbmQgdGVzdGluZyBzZXRzPC90ZXh0PjxyZWN0IGZpbGw9IiNGMUYxRjEiIGhlaWdodD0iMzIuODQzOCIgcng9IjEyLjUiIHJ5PSIxMi41IiBzdHlsZT0ic3Ryb2tlOiMxODE4MTg7c3Ryb2tlLXdpZHRoOjAuNTsiIHdpZHRoPSIyMDUiIHg9IjM3NS41IiB5PSIxMDEyLjc3NzMiLz48dGV4dCBmaWxsPSIjMDAwMDAwIiBmb250LWZhbWlseT0ic2Fucy1zZXJpZiIgZm9udC1zaXplPSIxMiIgbGVuZ3RoQWRqdXN0PSJzcGFjaW5nIiB0ZXh0TGVuZ3RoPSIxODUiIHg9IjM4NS41IiB5PSIxMDM0LjEyMTEiPlRyYWluIGFuZCBldmFsdWF0ZSB0aGUgbW9kZWw8L3RleHQ+PHBvbHlnb24gZmlsbD0iI0YxRjFGMSIgcG9pbnRzPSIzNTguNSwxMDUxLjYyMTEsMzcwLjUsMTA2My42MjExLDM1OC41LDEwNzUuNjIxMSwzNDYuNSwxMDYzLjYyMTEsMzU4LjUsMTA1MS42MjExIiBzdHlsZT0ic3Ryb2tlOiMxODE4MTg7c3Ryb2tlLXdpZHRoOjAuNTsiLz48cmVjdCBmaWxsPSIjRjFGMUYxIiBoZWlnaHQ9IjMyLjg0MzgiIHJ4PSIxMi41IiByeT0iMTIuNSIgc3R5bGU9InN0cm9rZTojMTgxODE4O3N0cm9rZS13aWR0aDowLjU7IiB3aWR0aD0iMTI1IiB4PSIyOTYiIHk9IjEwOTUuNjIxMSIvPjx0ZXh0IGZpbGw9IiMwMDAwMDAiIGZvbnQtZmFtaWx5PSJzYW5zLXNlcmlmIiBmb250LXNpemU9IjEyIiBsZW5ndGhBZGp1c3Q9InNwYWNpbmciIHRleHRMZW5ndGg9IjEwNSIgeD0iMzA2IiB5PSIxMTE2Ljk2NDgiPlRlc3QgdGhlIENoYXRib3Q8L3RleHQ+PHJlY3QgZmlsbD0iI0YxRjFGMSIgaGVpZ2h0PSIzMi44NDM4IiByeD0iMTIuNSIgcnk9IjEyLjUiIHN0eWxlPSJzdHJva2U6IzE4MTgxODtzdHJva2Utd2lkdGg6MC41OyIgd2lkdGg9IjMzMCIgeD0iMTkzLjUiIHk9IjExNDguNDY0OCIvPjx0ZXh0IGZpbGw9IiMwMDAwMDAiIGZvbnQtZmFtaWx5PSJzYW5zLXNlcmlmIiBmb250LXNpemU9IjEyIiBsZW5ndGhBZGp1c3Q9InNwYWNpbmciIHRleHRMZW5ndGg9IjMxMCIgeD0iMjAzLjUiIHk9IjExNjkuODA4NiI+VmVyaWZ5IGFjY3VyYWN5LCBzaW1wbGljaXR5LCBhbmQgcmVzcG9uc2l2ZW5lc3M8L3RleHQ+PHJlY3QgZmlsbD0iI0YxRjFGMSIgaGVpZ2h0PSIzMi44NDM4IiByeD0iMTIuNSIgcnk9IjEyLjUiIHN0eWxlPSJzdHJva2U6IzE4MTgxODtzdHJva2Utd2lkdGg6MC41OyIgd2lkdGg9IjE0MCIgeD0iMjg4LjUiIHk9IjEyMDEuMzA4NiIvPjx0ZXh0IGZpbGw9IiMwMDAwMDAiIGZvbnQtZmFtaWx5PSJzYW5zLXNlcmlmIiBmb250LXNpemU9IjEyIiBsZW5ndGhBZGp1c3Q9InNwYWNpbmciIHRleHRMZW5ndGg9IjEyMCIgeD0iMjk4LjUiIHk9IjEyMjIuNjUyMyI+RGVwbG95IHRoZSBDaGF0Ym90PC90ZXh0Pjxwb2x5Z29uIGZpbGw9IiNGMUYxRjEiIHBvaW50cz0iMzIsMTI1NC4xNTIzLDE1MiwxMjU0LjE1MjMsMTY0LDEyNjYuMTUyMywxNTIsMTI3OC4xNTIzLDMyLDEyNzguMTUyMywyMCwxMjY2LjE1MjMsMzIsMTI1NC4xNTIzIiBzdHlsZT0ic3Ryb2tlOiMxODE4MTg7c3Ryb2tlLXdpZHRoOjAuNTsiLz48dGV4dCBmaWxsPSIjMDAwMDAwIiBmb250LWZhbWlseT0ic2Fucy1zZXJpZiIgZm9udC1zaXplPSIxMSIgbGVuZ3RoQWRqdXN0PSJzcGFjaW5nIiB0ZXh0TGVuZ3RoPSI3OCIgeD0iOTYiIHk9IjEyODguNTUwOCI+V2ViIEludGVyZmFjZTwvdGV4dD48dGV4dCBmaWxsPSIjMDAwMDAwIiBmb250LWZhbWlseT0ic2Fucy1zZXJpZiIgZm9udC1zaXplPSIxMSIgbGVuZ3RoQWRqdXN0PSJzcGFjaW5nIiB0ZXh0TGVuZ3RoPSIxMjAiIHg9IjMyIiB5PSIxMjcwLjY2NDEiPkRlcGxveW1lbnQgUGxhdGZvcm0/PC90ZXh0PjxyZWN0IGZpbGw9IiNGMUYxRjEiIGhlaWdodD0iMzIuODQzOCIgcng9IjEyLjUiIHJ5PSIxMi41IiBzdHlsZT0ic3Ryb2tlOiMxODE4MTg7c3Ryb2tlLXdpZHRoOjAuNTsiIHdpZHRoPSIxNDYiIHg9IjE5IiB5PSIxMzA5LjkyNTgiLz48dGV4dCBmaWxsPSIjMDAwMDAwIiBmb250LWZhbWlseT0ic2Fucy1zZXJpZiIgZm9udC1zaXplPSIxMiIgbGVuZ3RoQWRqdXN0PSJzcGFjaW5nIiB0ZXh0TGVuZ3RoPSIxMjYiIHg9IjI5IiB5PSIxMzMxLjI2OTUiPlVzZSBGbGFzayBvciBEamFuZ288L3RleHQ+PHBvbHlnb24gZmlsbD0iI0YxRjFGMSIgcG9pbnRzPSIyNDksMTI1NC4xNTIzLDMwOSwxMjU0LjE1MjMsMzIxLDEyNjYuMTUyMywzMDksMTI3OC4xNTIzLDI0OSwxMjc4LjE1MjMsMjM3LDEyNjYuMTUyMywyNDksMTI1NC4xNTIzIiBzdHlsZT0ic3Ryb2tlOiMxODE4MTg7c3Ryb2tlLXdpZHRoOjAuNTsiLz48dGV4dCBmaWxsPSIjMDAwMDAwIiBmb250LWZhbWlseT0ic2Fucy1zZXJpZiIgZm9udC1zaXplPSIxMSIgbGVuZ3RoQWRqdXN0PSJzcGFjaW5nIiB0ZXh0TGVuZ3RoPSI2MCIgeD0iMjQ5IiB5PSIxMjcwLjY2NDEiPk1vYmlsZSBBcHA8L3RleHQ+PHRleHQgZmlsbD0iIzAwMDAwMCIgZm9udC1mYW1pbHk9InNhbnMtc2VyaWYiIGZvbnQtc2l6ZT0iMTEiIGxlbmd0aEFkanVzdD0ic3BhY2luZyIgdGV4dExlbmd0aD0iMTE0IiB4PSIzMjEiIHk9IjEyNjQuNzc3MyI+TWVzc2FnaW5nIFBsYXRmb3JtczwvdGV4dD48cmVjdCBmaWxsPSIjRjFGMUYxIiBoZWlnaHQ9IjMyLjg0MzgiIHJ4PSIxMi41IiByeT0iMTIuNSIgc3R5bGU9InN0cm9rZTojMTgxODE4O3N0cm9rZS13aWR0aDowLjU7IiB3aWR0aD0iMTc4IiB4PSIxOTAiIHk9IjEyOTguMTUyMyIvPjx0ZXh0IGZpbGw9IiMwMDAwMDAiIGZvbnQtZmFtaWx5PSJzYW5zLXNlcmlmIiBmb250LXNpemU9IjEyIiBsZW5ndGhBZGp1c3Q9InNwYWNpbmciIHRleHRMZW5ndGg9IjE1OCIgeD0iMjAwIiB5PSIxMzE5LjQ5NjEiPlVzZSBSZWFjdCBOYXRpdmUvRmx1dHRlcjwvdGV4dD48cmVjdCBmaWxsPSIjRjFGMUYxIiBoZWlnaHQ9IjMyLjg0MzgiIHJ4PSIxMi41IiByeT0iMTIuNSIgc3R5bGU9InN0cm9rZTojMTgxODE4O3N0cm9rZS13aWR0aDowLjU7IiB3aWR0aD0iMzEwIiB4PSIzODgiIHk9IjEzMDcuMDM5MSIvPjx0ZXh0IGZpbGw9IiMwMDAwMDAiIGZvbnQtZmFtaWx5PSJzYW5zLXNlcmlmIiBmb250LXNpemU9IjEyIiBsZW5ndGhBZGp1c3Q9InNwYWNpbmciIHRleHRMZW5ndGg9IjI5MCIgeD0iMzk4IiB5PSIxMzI4LjM4MjgiPkludGVncmF0ZSB3aXRoIFdoYXRzQXBwLCBUZWxlZ3JhbSwgb3Igb3RoZXJzPC90ZXh0PjxyZWN0IGZpbGw9IiNGMUYxRjEiIGhlaWdodD0iMzIuODQzOCIgcng9IjEyLjUiIHJ5PSIxMi41IiBzdHlsZT0ic3Ryb2tlOiMxODE4MTg7c3Ryb2tlLXdpZHRoOjAuNTsiIHdpZHRoPSIxNDYiIHg9IjI4NS41IiB5PSIxMzgyLjc2OTUiLz48dGV4dCBmaWxsPSIjMDAwMDAwIiBmb250LWZhbWlseT0ic2Fucy1zZXJpZiIgZm9udC1zaXplPSIxMiIgbGVuZ3RoQWRqdXN0PSJzcGFjaW5nIiB0ZXh0TGVuZ3RoPSIxMjYiIHg9IjI5NS41IiB5PSIxNDA0LjExMzMiPkl0ZXJhdGUgYW5kIEltcHJvdmU8L3RleHQ+PHJlY3QgZmlsbD0iI0YxRjFGMSIgaGVpZ2h0PSIzMi44NDM4IiByeD0iMTIuNSIgcnk9IjEyLjUiIHN0eWxlPSJzdHJva2U6IzE4MTgxODtzdHJva2Utd2lkdGg6MC41OyIgd2lkdGg9IjE5MyIgeD0iMjYyIiB5PSIxNDM1LjYxMzMiLz48dGV4dCBmaWxsPSIjMDAwMDAwIiBmb250LWZhbWlseT0ic2Fucy1zZXJpZiIgZm9udC1zaXplPSIxMiIgbGVuZ3RoQWRqdXN0PSJzcGFjaW5nIiB0ZXh0TGVuZ3RoPSIxNzMiIHg9IjI3MiIgeT0iMTQ1Ni45NTciPkdhdGhlciBmZWVkYmFjayBmcm9tIHVzZXJzPC90ZXh0PjxyZWN0IGZpbGw9IiNGMUYxRjEiIGhlaWdodD0iMzIuODQzOCIgcng9IjEyLjUiIHJ5PSIxMi41IiBzdHlsZT0ic3Ryb2tlOiMxODE4MTg7c3Ryb2tlLXdpZHRoOjAuNTsiIHdpZHRoPSIyNzEiIHg9IjIyMyIgeT0iMTQ4OC40NTciLz48dGV4dCBmaWxsPSIjMDAwMDAwIiBmb250LWZhbWlseT0ic2Fucy1zZXJpZiIgZm9udC1zaXplPSIxMiIgbGVuZ3RoQWRqdXN0PSJzcGFjaW5nIiB0ZXh0TGVuZ3RoPSIyNTEiIHg9IjIzMyIgeT0iMTUwOS44MDA4Ij5VcGRhdGUgUSZhbXA7QSBiYXNlIGFuZCBpbXByb3ZlIHJlc3BvbnNlczwvdGV4dD48ZWxsaXBzZSBjeD0iMzU4LjUiIGN5PSIxNTUyLjMwMDgiIGZpbGw9Im5vbmUiIHJ4PSIxMSIgcnk9IjExIiBzdHlsZT0ic3Ryb2tlOiMyMjIyMjI7c3Ryb2tlLXdpZHRoOjEuMDsiLz48ZWxsaXBzZSBjeD0iMzU4LjUiIGN5PSIxNTUyLjMwMDgiIGZpbGw9IiMyMjIyMjIiIHJ4PSI2IiByeT0iNiIgc3R5bGU9InN0cm9rZTojMjIyMjIyO3N0cm9rZS13aWR0aDoxLjA7Ii8+PGxpbmUgc3R5bGU9InN0cm9rZTojMTgxODE4O3N0cm9rZS13aWR0aDoxLjA7IiB4MT0iMzU4LjUiIHgyPSIzNTguNSIgeTE9IjMwIiB5Mj0iNTAiLz48cG9seWdvbiBmaWxsPSIjMTgxODE4IiBwb2ludHM9IjM1NC41LDQwLDM1OC41LDUwLDM2Mi41LDQwLDM1OC41LDQ0IiBzdHlsZT0ic3Ryb2tlOiMxODE4MTg7c3Ryb2tlLXdpZHRoOjEuMDsiLz48bGluZSBzdHlsZT0ic3Ryb2tlOiMxODE4MTg7c3Ryb2tlLXdpZHRoOjEuMDsiIHgxPSIzNTguNSIgeDI9IjM1OC41IiB5MT0iODIuODQzOCIgeTI9IjExMi4yOTMiLz48cG9seWdvbiBmaWxsPSIjMTgxODE4IiBwb2ludHM9IjM1NC41LDEwMi4yOTMsMzU4LjUsMTEyLjI5MywzNjIuNSwxMDIuMjkzLDM1OC41LDEwNi4yOTMiIHN0eWxlPSJzdHJva2U6IzE4MTgxODtzdHJva2Utd2lkdGg6MS4wOyIvPjxsaW5lIHN0eWxlPSJzdHJva2U6IzE4MTgxODtzdHJva2Utd2lkdGg6MS4wOyIgeDE9IjM1OC41IiB4Mj0iMzU4LjUiIHkxPSIxNDUuMTM2NyIgeTI9IjE2NS4xMzY3Ii8+PHBvbHlnb24gZmlsbD0iIzE4MTgxOCIgcG9pbnRzPSIzNTQuNSwxNTUuMTM2NywzNTguNSwxNjUuMTM2NywzNjIuNSwxNTUuMTM2NywzNTguNSwxNTkuMTM2NyIgc3R5bGU9InN0cm9rZTojMTgxODE4O3N0cm9rZS13aWR0aDoxLjA7Ii8+PGxpbmUgc3R5bGU9InN0cm9rZTojMTgxODE4O3N0cm9rZS13aWR0aDoxLjA7IiB4MT0iMzU4LjUiIHgyPSIzNTguNSIgeTE9IjIyMy42NjgiIHkyPSIyNDMuNjY4Ii8+PHBvbHlnb24gZmlsbD0iIzE4MTgxOCIgcG9pbnRzPSIzNTQuNSwyMzMuNjY4LDM1OC41LDI0My42NjgsMzYyLjUsMjMzLjY2OCwzNTguNSwyMzcuNjY4IiBzdHlsZT0ic3Ryb2tlOiMxODE4MTg7c3Ryb2tlLXdpZHRoOjEuMDsiLz48bGluZSBzdHlsZT0ic3Ryb2tlOiMxODE4MTg7c3Ryb2tlLXdpZHRoOjEuMDsiIHgxPSIzNTguNSIgeDI9IjM1OC41IiB5MT0iMjc2LjUxMTciIHkyPSIyOTYuNTExNyIvPjxwb2x5Z29uIGZpbGw9IiMxODE4MTgiIHBvaW50cz0iMzU0LjUsMjg2LjUxMTcsMzU4LjUsMjk2LjUxMTcsMzYyLjUsMjg2LjUxMTcsMzU4LjUsMjkwLjUxMTciIHN0eWxlPSJzdHJva2U6IzE4MTgxODtzdHJva2Utd2lkdGg6MS4wOyIvPjxsaW5lIHN0eWxlPSJzdHJva2U6IzE4MTgxODtzdHJva2Utd2lkdGg6MS4wOyIgeDE9IjMwNC41IiB4Mj0iMjAzLjUiIHkxPSIzNjEuMzU1NSIgeTI9IjM2MS4zNTU1Ii8+PGxpbmUgc3R5bGU9InN0cm9rZTojMTgxODE4O3N0cm9rZS13aWR0aDoxLjA7IiB4MT0iMjAzLjUiIHgyPSIyMDMuNSIgeTE9IjM2MS4zNTU1IiB5Mj0iMzgzLjM1NTUiLz48cG9seWdvbiBmaWxsPSIjMTgxODE4IiBwb2ludHM9IjE5OS41LDM3My4zNTU1LDIwMy41LDM4My4zNTU1LDIwNy41LDM3My4zNTU1LDIwMy41LDM3Ny4zNTU1IiBzdHlsZT0ic3Ryb2tlOiMxODE4MTg7c3Ryb2tlLXdpZHRoOjEuMDsiLz48bGluZSBzdHlsZT0ic3Ryb2tlOiMxODE4MTg7c3Ryb2tlLXdpZHRoOjEuMDsiIHgxPSI0MTIuNSIgeDI9IjUxMy41IiB5MT0iMzYxLjM1NTUiIHkyPSIzNjEuMzU1NSIvPjxsaW5lIHN0eWxlPSJzdHJva2U6IzE4MTgxODtzdHJva2Utd2lkdGg6MS4wOyIgeDE9IjUxMy41IiB4Mj0iNTEzLjUiIHkxPSIzNjEuMzU1NSIgeTI9IjM4My4zNTU1Ii8+PHBvbHlnb24gZmlsbD0iIzE4MTgxOCIgcG9pbnRzPSI1MDkuNSwzNzMuMzU1NSw1MTMuNSwzODMuMzU1NSw1MTcuNSwzNzMuMzU1NSw1MTMuNSwzNzcuMzU1NSIgc3R5bGU9InN0cm9rZTojMTgxODE4O3N0cm9rZS13aWR0aDoxLjA7Ii8+PGxpbmUgc3R5bGU9InN0cm9rZTojMTgxODE4O3N0cm9rZS13aWR0aDoxLjA7IiB4MT0iMjAzLjUiIHgyPSIyMDMuNSIgeTE9IjQxNi4xOTkyIiB5Mj0iNDM0LjE5OTIiLz48bGluZSBzdHlsZT0ic3Ryb2tlOiMxODE4MTg7c3Ryb2tlLXdpZHRoOjEuMDsiIHgxPSIyMDMuNSIgeDI9IjM0Ni41IiB5MT0iNDM0LjE5OTIiIHkyPSI0MzQuMTk5MiIvPjxwb2x5Z29uIGZpbGw9IiMxODE4MTgiIHBvaW50cz0iMzM2LjUsNDMwLjE5OTIsMzQ2LjUsNDM0LjE5OTIsMzM2LjUsNDM4LjE5OTIsMzQwLjUsNDM0LjE5OTIiIHN0eWxlPSJzdHJva2U6IzE4MTgxODtzdHJva2Utd2lkdGg6MS4wOyIvPjxsaW5lIHN0eWxlPSJzdHJva2U6IzE4MTgxODtzdHJva2Utd2lkdGg6MS4wOyIgeDE9IjUxMy41IiB4Mj0iNTEzLjUiIHkxPSI0MTYuMTk5MiIgeTI9IjQzNC4xOTkyIi8+PGxpbmUgc3R5bGU9InN0cm9rZTojMTgxODE4O3N0cm9rZS13aWR0aDoxLjA7IiB4MT0iNTEzLjUiIHgyPSIzNzAuNSIgeTE9IjQzNC4xOTkyIiB5Mj0iNDM0LjE5OTIiLz48cG9seWdvbiBmaWxsPSIjMTgxODE4IiBwb2ludHM9IjM4MC41LDQzMC4xOTkyLDM3MC41LDQzNC4xOTkyLDM4MC41LDQzOC4xOTkyLDM3Ni41LDQzNC4xOTkyIiBzdHlsZT0ic3Ryb2tlOiMxODE4MTg7c3Ryb2tlLXdpZHRoOjEuMDsiLz48bGluZSBzdHlsZT0ic3Ryb2tlOiMxODE4MTg7c3Ryb2tlLXdpZHRoOjEuMDsiIHgxPSIzNTguNSIgeDI9IjM1OC41IiB5MT0iMzI5LjM1NTUiIHkyPSIzNDkuMzU1NSIvPjxwb2x5Z29uIGZpbGw9IiMxODE4MTgiIHBvaW50cz0iMzU0LjUsMzM5LjM1NTUsMzU4LjUsMzQ5LjM1NTUsMzYyLjUsMzM5LjM1NTUsMzU4LjUsMzQzLjM1NTUiIHN0eWxlPSJzdHJva2U6IzE4MTgxODtzdHJva2Utd2lkdGg6MS4wOyIvPjxsaW5lIHN0eWxlPSJzdHJva2U6IzE4MTgxODtzdHJva2Utd2lkdGg6MS4wOyIgeDE9IjM1OC41IiB4Mj0iMzU4LjUiIHkxPSI0NDYuMTk5MiIgeTI9IjQ2Ni4xOTkyIi8+PHBvbHlnb24gZmlsbD0iIzE4MTgxOCIgcG9pbnRzPSIzNTQuNSw0NTYuMTk5MiwzNTguNSw0NjYuMTk5MiwzNjIuNSw0NTYuMTk5MiwzNTguNSw0NjAuMTk5MiIgc3R5bGU9InN0cm9rZTojMTgxODE4O3N0cm9rZS13aWR0aDoxLjA7Ii8+PGxpbmUgc3R5bGU9InN0cm9rZTojMTgxODE4O3N0cm9rZS13aWR0aDoxLjA7IiB4MT0iMzU4LjUiIHgyPSIzNTguNSIgeTE9IjU3Ni44NzExIiB5Mj0iNTk2Ljg3MTEiLz48cG9seWdvbiBmaWxsPSIjMTgxODE4IiBwb2ludHM9IjM1NC41LDU4Ni44NzExLDM1OC41LDU5Ni44NzExLDM2Mi41LDU4Ni44NzExLDM1OC41LDU5MC44NzExIiBzdHlsZT0ic3Ryb2tlOiMxODE4MTg7c3Ryb2tlLXdpZHRoOjEuMDsiLz48bGluZSBzdHlsZT0ic3Ryb2tlOiMxODE4MTg7c3Ryb2tlLXdpZHRoOjEuMDsiIHgxPSIzNTguNSIgeDI9IjM1OC41IiB5MT0iNjI5LjcxNDgiIHkyPSI2NDkuNzE0OCIvPjxwb2x5Z29uIGZpbGw9IiMxODE4MTgiIHBvaW50cz0iMzU0LjUsNjM5LjcxNDgsMzU4LjUsNjQ5LjcxNDgsMzYyLjUsNjM5LjcxNDgsMzU4LjUsNjQzLjcxNDgiIHN0eWxlPSJzdHJva2U6IzE4MTgxODtzdHJva2Utd2lkdGg6MS4wOyIvPjxsaW5lIHN0eWxlPSJzdHJva2U6IzE4MTgxODtzdHJva2Utd2lkdGg6MS4wOyIgeDE9IjM1OC41IiB4Mj0iMzU4LjUiIHkxPSI2ODIuNTU4NiIgeTI9IjcwMi41NTg2Ii8+PHBvbHlnb24gZmlsbD0iIzE4MTgxOCIgcG9pbnRzPSIzNTQuNSw2OTIuNTU4NiwzNTguNSw3MDIuNTU4NiwzNjIuNSw2OTIuNTU4NiwzNTguNSw2OTYuNTU4NiIgc3R5bGU9InN0cm9rZTojMTgxODE4O3N0cm9rZS13aWR0aDoxLjA7Ii8+PGxpbmUgc3R5bGU9InN0cm9rZTojMTgxODE4O3N0cm9rZS13aWR0aDoxLjA7IiB4MT0iMzU4LjUiIHgyPSIzNTguNSIgeTE9IjQ5OS4wNDMiIHkyPSI1NDQuMDI3MyIvPjxwb2x5Z29uIGZpbGw9IiMxODE4MTgiIHBvaW50cz0iMzU0LjUsNTM0LjAyNzMsMzU4LjUsNTQ0LjAyNzMsMzYyLjUsNTM0LjAyNzMsMzU4LjUsNTM4LjAyNzMiIHN0eWxlPSJzdHJva2U6IzE4MTgxODtzdHJva2Utd2lkdGg6MS4wOyIvPjxsaW5lIHN0eWxlPSJzdHJva2U6IzE4MTgxODtzdHJva2Utd2lkdGg6MS4wOyIgeDE9IjM1OC41IiB4Mj0iMzU4LjUiIHkxPSI3MzUuNDAyMyIgeTI9Ijc2Ny40MDIzIi8+PHBvbHlnb24gZmlsbD0iIzE4MTgxOCIgcG9pbnRzPSIzNTQuNSw3NTcuNDAyMywzNTguNSw3NjcuNDAyMywzNjIuNSw3NTcuNDAyMywzNTguNSw3NjEuNDAyMyIgc3R5bGU9InN0cm9rZTojMTgxODE4O3N0cm9rZS13aWR0aDoxLjA7Ii8+PGxpbmUgc3R5bGU9InN0cm9rZTojMTgxODE4O3N0cm9rZS13aWR0aDoxLjA7IiB4MT0iNDc4IiB4Mj0iNDc4IiB5MT0iODg3LjA4OTgiIHkyPSI5MDcuMDg5OCIvPjxwb2x5Z29uIGZpbGw9IiMxODE4MTgiIHBvaW50cz0iNDc0LDg5Ny4wODk4LDQ3OCw5MDcuMDg5OCw0ODIsODk3LjA4OTgsNDc4LDkwMS4wODk4IiBzdHlsZT0ic3Ryb2tlOiMxODE4MTg7c3Ryb2tlLXdpZHRoOjEuMDsiLz48bGluZSBzdHlsZT0ic3Ryb2tlOiMxODE4MTg7c3Ryb2tlLXdpZHRoOjEuMDsiIHgxPSI0NzgiIHgyPSI0NzgiIHkxPSI5MzkuOTMzNiIgeTI9Ijk1OS45MzM2Ii8+PHBvbHlnb24gZmlsbD0iIzE4MTgxOCIgcG9pbnRzPSI0NzQsOTQ5LjkzMzYsNDc4LDk1OS45MzM2LDQ4Miw5NDkuOTMzNiw0NzgsOTUzLjkzMzYiIHN0eWxlPSJzdHJva2U6IzE4MTgxODtzdHJva2Utd2lkdGg6MS4wOyIvPjxsaW5lIHN0eWxlPSJzdHJva2U6IzE4MTgxODtzdHJva2Utd2lkdGg6MS4wOyIgeDE9IjQ3OCIgeDI9IjQ3OCIgeTE9Ijk5Mi43NzczIiB5Mj0iMTAxMi43NzczIi8+PHBvbHlnb24gZmlsbD0iIzE4MTgxOCIgcG9pbnRzPSI0NzQsMTAwMi43NzczLDQ3OCwxMDEyLjc3NzMsNDgyLDEwMDIuNzc3Myw0NzgsMTAwNi43NzczIiBzdHlsZT0ic3Ryb2tlOiMxODE4MTg7c3Ryb2tlLXdpZHRoOjEuMDsiLz48bGluZSBzdHlsZT0ic3Ryb2tlOiMxODE4MTg7c3Ryb2tlLXdpZHRoOjEuMDsiIHgxPSIzMTMuNSIgeDI9IjIzOSIgeTE9IjgzMi4yNDYxIiB5Mj0iODMyLjI0NjEiLz48bGluZSBzdHlsZT0ic3Ryb2tlOiMxODE4MTg7c3Ryb2tlLXdpZHRoOjEuMDsiIHgxPSIyMzkiIHgyPSIyMzkiIHkxPSI4MzIuMjQ2MSIgeTI9Ijg1NC4yNDYxIi8+PHBvbHlnb24gZmlsbD0iIzE4MTgxOCIgcG9pbnRzPSIyMzUsODQ0LjI0NjEsMjM5LDg1NC4yNDYxLDI0Myw4NDQuMjQ2MSwyMzksODQ4LjI0NjEiIHN0eWxlPSJzdHJva2U6IzE4MTgxODtzdHJva2Utd2lkdGg6MS4wOyIvPjxsaW5lIHN0eWxlPSJzdHJva2U6IzE4MTgxODtzdHJva2Utd2lkdGg6MS4wOyIgeDE9IjQwMy41IiB4Mj0iNDc4IiB5MT0iODMyLjI0NjEiIHkyPSI4MzIuMjQ2MSIvPjxsaW5lIHN0eWxlPSJzdHJva2U6IzE4MTgxODtzdHJva2Utd2lkdGg6MS4wOyIgeDE9IjQ3OCIgeDI9IjQ3OCIgeTE9IjgzMi4yNDYxIiB5Mj0iODU0LjI0NjEiLz48cG9seWdvbiBmaWxsPSIjMTgxODE4IiBwb2ludHM9IjQ3NCw4NDQuMjQ2MSw0NzgsODU0LjI0NjEsNDgyLDg0NC4yNDYxLDQ3OCw4NDguMjQ2MSIgc3R5bGU9InN0cm9rZTojMTgxODE4O3N0cm9rZS13aWR0aDoxLjA7Ii8+PGxpbmUgc3R5bGU9InN0cm9rZTojMTgxODE4O3N0cm9rZS13aWR0aDoxLjA7IiB4MT0iMjM5IiB4Mj0iMjM5IiB5MT0iODg3LjA4OTgiIHkyPSIxMDYzLjYyMTEiLz48bGluZSBzdHlsZT0ic3Ryb2tlOiMxODE4MTg7c3Ryb2tlLXdpZHRoOjEuMDsiIHgxPSIyMzkiIHgyPSIzNDYuNSIgeTE9IjEwNjMuNjIxMSIgeTI9IjEwNjMuNjIxMSIvPjxwb2x5Z29uIGZpbGw9IiMxODE4MTgiIHBvaW50cz0iMzM2LjUsMTA1OS42MjExLDM0Ni41LDEwNjMuNjIxMSwzMzYuNSwxMDY3LjYyMTEsMzQwLjUsMTA2My42MjExIiBzdHlsZT0ic3Ryb2tlOiMxODE4MTg7c3Ryb2tlLXdpZHRoOjEuMDsiLz48bGluZSBzdHlsZT0ic3Ryb2tlOiMxODE4MTg7c3Ryb2tlLXdpZHRoOjEuMDsiIHgxPSI0NzgiIHgyPSI0NzgiIHkxPSIxMDQ1LjYyMTEiIHkyPSIxMDYzLjYyMTEiLz48bGluZSBzdHlsZT0ic3Ryb2tlOiMxODE4MTg7c3Ryb2tlLXdpZHRoOjEuMDsiIHgxPSI0NzgiIHgyPSIzNzAuNSIgeTE9IjEwNjMuNjIxMSIgeTI9IjEwNjMuNjIxMSIvPjxwb2x5Z29uIGZpbGw9IiMxODE4MTgiIHBvaW50cz0iMzgwLjUsMTA1OS42MjExLDM3MC41LDEwNjMuNjIxMSwzODAuNSwxMDY3LjYyMTEsMzc2LjUsMTA2My42MjExIiBzdHlsZT0ic3Ryb2tlOiMxODE4MTg7c3Ryb2tlLXdpZHRoOjEuMDsiLz48bGluZSBzdHlsZT0ic3Ryb2tlOiMxODE4MTg7c3Ryb2tlLXdpZHRoOjEuMDsiIHgxPSIzNTguNSIgeDI9IjM1OC41IiB5MT0iODAwLjI0NjEiIHkyPSI4MjAuMjQ2MSIvPjxwb2x5Z29uIGZpbGw9IiMxODE4MTgiIHBvaW50cz0iMzU0LjUsODEwLjI0NjEsMzU4LjUsODIwLjI0NjEsMzYyLjUsODEwLjI0NjEsMzU4LjUsODE0LjI0NjEiIHN0eWxlPSJzdHJva2U6IzE4MTgxODtzdHJva2Utd2lkdGg6MS4wOyIvPjxsaW5lIHN0eWxlPSJzdHJva2U6IzE4MTgxODtzdHJva2Utd2lkdGg6MS4wOyIgeDE9IjM1OC41IiB4Mj0iMzU4LjUiIHkxPSIxMDc1LjYyMTEiIHkyPSIxMDk1LjYyMTEiLz48cG9seWdvbiBmaWxsPSIjMTgxODE4IiBwb2ludHM9IjM1NC41LDEwODUuNjIxMSwzNTguNSwxMDk1LjYyMTEsMzYyLjUsMTA4NS42MjExLDM1OC41LDEwODkuNjIxMSIgc3R5bGU9InN0cm9rZTojMTgxODE4O3N0cm9rZS13aWR0aDoxLjA7Ii8+PGxpbmUgc3R5bGU9InN0cm9rZTojMTgxODE4O3N0cm9rZS13aWR0aDoxLjA7IiB4MT0iMzU4LjUiIHgyPSIzNTguNSIgeTE9IjExMjguNDY0OCIgeTI9IjExNDguNDY0OCIvPjxwb2x5Z29uIGZpbGw9IiMxODE4MTgiIHBvaW50cz0iMzU0LjUsMTEzOC40NjQ4LDM1OC41LDExNDguNDY0OCwzNjIuNSwxMTM4LjQ2NDgsMzU4LjUsMTE0Mi40NjQ4IiBzdHlsZT0ic3Ryb2tlOiMxODE4MTg7c3Ryb2tlLXdpZHRoOjEuMDsiLz48bGluZSBzdHlsZT0ic3Ryb2tlOiMxODE4MTg7c3Ryb2tlLXdpZHRoOjEuMDsiIHgxPSIzNTguNSIgeDI9IjM1OC41IiB5MT0iMTE4MS4zMDg2IiB5Mj0iMTIwMS4zMDg2Ii8+PHBvbHlnb24gZmlsbD0iIzE4MTgxOCIgcG9pbnRzPSIzNTQuNSwxMTkxLjMwODYsMzU4LjUsMTIwMS4zMDg2LDM2Mi41LDExOTEuMzA4NiwzNTguNSwxMTk1LjMwODYiIHN0eWxlPSJzdHJva2U6IzE4MTgxODtzdHJva2Utd2lkdGg6MS4wOyIvPjxsaW5lIHN0eWxlPSJzdHJva2U6IzE4MTgxODtzdHJva2Utd2lkdGg6MS4wOyIgeDE9IjkyIiB4Mj0iOTIiIHkxPSIxMjc4LjE1MjMiIHkyPSIxMzA5LjkyNTgiLz48cG9seWdvbiBmaWxsPSIjMTgxODE4IiBwb2ludHM9Ijg4LDEyOTkuOTI1OCw5MiwxMzA5LjkyNTgsOTYsMTI5OS45MjU4LDkyLDEzMDMuOTI1OCIgc3R5bGU9InN0cm9rZTojMTgxODE4O3N0cm9rZS13aWR0aDoxLjA7Ii8+PGxpbmUgc3R5bGU9InN0cm9rZTojMTgxODE4O3N0cm9rZS13aWR0aDoxLjA7IiB4MT0iOTIiIHgyPSI5MiIgeTE9IjEzNDIuNzY5NSIgeTI9IjEzNjIuNzY5NSIvPjxwb2x5Z29uIGZpbGw9IiMxODE4MTgiIHBvaW50cz0iODgsMTM1Mi43Njk1LDkyLDEzNjIuNzY5NSw5NiwxMzUyLjc2OTUsOTIsMTM1Ni43Njk1IiBzdHlsZT0ic3Ryb2tlOiMxODE4MTg7c3Ryb2tlLXdpZHRoOjEuMDsiLz48bGluZSBzdHlsZT0ic3Ryb2tlOiMxODE4MTg7c3Ryb2tlLXdpZHRoOjEuMDsiIHgxPSIyNzkiIHgyPSIyNzkiIHkxPSIxMjc4LjE1MjMiIHkyPSIxMjk4LjE1MjMiLz48cG9seWdvbiBmaWxsPSIjMTgxODE4IiBwb2ludHM9IjI3NSwxMjg4LjE1MjMsMjc5LDEyOTguMTUyMywyODMsMTI4OC4xNTIzLDI3OSwxMjkyLjE1MjMiIHN0eWxlPSJzdHJva2U6IzE4MTgxODtzdHJva2Utd2lkdGg6MS4wOyIvPjxsaW5lIHN0eWxlPSJzdHJva2U6IzE4MTgxODtzdHJva2Utd2lkdGg6MS4wOyIgeDE9IjI3OSIgeDI9IjI3OSIgeTE9IjEzMzAuOTk2MSIgeTI9IjEzNjIuNzY5NSIvPjxwb2x5Z29uIGZpbGw9IiMxODE4MTgiIHBvaW50cz0iMjc1LDEzNTIuNzY5NSwyNzksMTM2Mi43Njk1LDI4MywxMzUyLjc2OTUsMjc5LDEzNTYuNzY5NSIgc3R5bGU9InN0cm9rZTojMTgxODE4O3N0cm9rZS13aWR0aDoxLjA7Ii8+PGxpbmUgc3R5bGU9InN0cm9rZTojMTgxODE4O3N0cm9rZS13aWR0aDoxLjA7IiB4MT0iMTY0IiB4Mj0iMjM3IiB5MT0iMTI2Ni4xNTIzIiB5Mj0iMTI2Ni4xNTIzIi8+PHBvbHlnb24gZmlsbD0iIzE4MTgxOCIgcG9pbnRzPSIyMjcsMTI2Mi4xNTIzLDIzNywxMjY2LjE1MjMsMjI3LDEyNzAuMTUyMywyMzEsMTI2Ni4xNTIzIiBzdHlsZT0ic3Ryb2tlOiMxODE4MTg7c3Ryb2tlLXdpZHRoOjEuMDsiLz48bGluZSBzdHlsZT0ic3Ryb2tlOiMxODE4MTg7c3Ryb2tlLXdpZHRoOjEuMDsiIHgxPSIzNTguNSIgeDI9IjM1OC41IiB5MT0iMTIzNC4xNTIzIiB5Mj0iMTIzOS4xNTIzIi8+PGxpbmUgc3R5bGU9InN0cm9rZTojMTgxODE4O3N0cm9rZS13aWR0aDoxLjA7IiB4MT0iMzU4LjUiIHgyPSI5MiIgeTE9IjEyMzkuMTUyMyIgeTI9IjEyMzkuMTUyMyIvPjxsaW5lIHN0eWxlPSJzdHJva2U6IzE4MTgxODtzdHJva2Utd2lkdGg6MS4wOyIgeDE9IjkyIiB4Mj0iOTIiIHkxPSIxMjM5LjE1MjMiIHkyPSIxMjU0LjE1MjMiLz48cG9seWdvbiBmaWxsPSIjMTgxODE4IiBwb2ludHM9Ijg4LDEyNDQuMTUyMyw5MiwxMjU0LjE1MjMsOTYsMTI0NC4xNTIzLDkyLDEyNDguMTUyMyIgc3R5bGU9InN0cm9rZTojMTgxODE4O3N0cm9rZS13aWR0aDoxLjA7Ii8+PGxpbmUgc3R5bGU9InN0cm9rZTojMTgxODE4O3N0cm9rZS13aWR0aDoxLjA7IiB4MT0iMzIxIiB4Mj0iNTQzIiB5MT0iMTI2Ni4xNTIzIiB5Mj0iMTI2Ni4xNTIzIi8+PGxpbmUgc3R5bGU9InN0cm9rZTojMTgxODE4O3N0cm9rZS13aWR0aDoxLjA7IiB4MT0iNTQzIiB4Mj0iNTQzIiB5MT0iMTI2Ni4xNTIzIiB5Mj0iMTMwNy4wMzkxIi8+PHBvbHlnb24gZmlsbD0iIzE4MTgxOCIgcG9pbnRzPSI1MzksMTI5Ny4wMzkxLDU0MywxMzA3LjAzOTEsNTQ3LDEyOTcuMDM5MSw1NDMsMTMwMS4wMzkxIiBzdHlsZT0ic3Ryb2tlOiMxODE4MTg7c3Ryb2tlLXdpZHRoOjEuMDsiLz48bGluZSBzdHlsZT0ic3Ryb2tlOiMxODE4MTg7c3Ryb2tlLXdpZHRoOjEuMDsiIHgxPSI1NDMiIHgyPSI1NDMiIHkxPSIxMzM5Ljg4MjgiIHkyPSIxMzYyLjc2OTUiLz48cG9seWdvbiBmaWxsPSIjMTgxODE4IiBwb2ludHM9IjUzOSwxMzUyLjc2OTUsNTQzLDEzNjIuNzY5NSw1NDcsMTM1Mi43Njk1LDU0MywxMzU2Ljc2OTUiIHN0eWxlPSJzdHJva2U6IzE4MTgxODtzdHJva2Utd2lkdGg6MS4wOyIvPjxsaW5lIHN0eWxlPSJzdHJva2U6IzE4MTgxODtzdHJva2Utd2lkdGg6MS4wOyIgeDE9IjkyIiB4Mj0iNTQzIiB5MT0iMTM2Mi43Njk1IiB5Mj0iMTM2Mi43Njk1Ii8+PGxpbmUgc3R5bGU9InN0cm9rZTojMTgxODE4O3N0cm9rZS13aWR0aDoxLjA7IiB4MT0iMzU4LjUiIHgyPSIzNTguNSIgeTE9IjEzNjIuNzY5NSIgeTI9IjEzODIuNzY5NSIvPjxwb2x5Z29uIGZpbGw9IiMxODE4MTgiIHBvaW50cz0iMzU0LjUsMTM3Mi43Njk1LDM1OC41LDEzODIuNzY5NSwzNjIuNSwxMzcyLjc2OTUsMzU4LjUsMTM3Ni43Njk1IiBzdHlsZT0ic3Ryb2tlOiMxODE4MTg7c3Ryb2tlLXdpZHRoOjEuMDsiLz48bGluZSBzdHlsZT0ic3Ryb2tlOiMxODE4MTg7c3Ryb2tlLXdpZHRoOjEuMDsiIHgxPSIzNTguNSIgeDI9IjM1OC41IiB5MT0iMTQxNS42MTMzIiB5Mj0iMTQzNS42MTMzIi8+PHBvbHlnb24gZmlsbD0iIzE4MTgxOCIgcG9pbnRzPSIzNTQuNSwxNDI1LjYxMzMsMzU4LjUsMTQzNS42MTMzLDM2Mi41LDE0MjUuNjEzMywzNTguNSwxNDI5LjYxMzMiIHN0eWxlPSJzdHJva2U6IzE4MTgxODtzdHJva2Utd2lkdGg6MS4wOyIvPjxsaW5lIHN0eWxlPSJzdHJva2U6IzE4MTgxODtzdHJva2Utd2lkdGg6MS4wOyIgeDE9IjM1OC41IiB4Mj0iMzU4LjUiIHkxPSIxNDY4LjQ1NyIgeTI9IjE0ODguNDU3Ii8+PHBvbHlnb24gZmlsbD0iIzE4MTgxOCIgcG9pbnRzPSIzNTQuNSwxNDc4LjQ1NywzNTguNSwxNDg4LjQ1NywzNjIuNSwxNDc4LjQ1NywzNTguNSwxNDgyLjQ1NyIgc3R5bGU9InN0cm9rZTojMTgxODE4O3N0cm9rZS13aWR0aDoxLjA7Ii8+PGxpbmUgc3R5bGU9InN0cm9rZTojMTgxODE4O3N0cm9rZS13aWR0aDoxLjA7IiB4MT0iMzU4LjUiIHgyPSIzNTguNSIgeTE9IjE1MjEuMzAwOCIgeTI9IjE1NDEuMzAwOCIvPjxwb2x5Z29uIGZpbGw9IiMxODE4MTgiIHBvaW50cz0iMzU0LjUsMTUzMS4zMDA4LDM1OC41LDE1NDEuMzAwOCwzNjIuNSwxNTMxLjMwMDgsMzU4LjUsMTUzNS4zMDA4IiBzdHlsZT0ic3Ryb2tlOiMxODE4MTg7c3Ryb2tlLXdpZHRoOjEuMDsiLz48IS0tU1JDPVtOTEhEUnppbTNCdHhMbjB2MzJ0R2o4VFRYa0dtZjRkSjVrajdyZ09oVGJIaXNiNFpZdVA0REdrNl9WVUh5ZkFza21hby1UeFp1dkNaY3kxNUNOaG81T1I4bmJWbWFyQTAtektCYmNuVkNPdUJKdW1HUkJGY09XWUI1M2dBRTg5OVozT29WRTdyaTBjY0dlWVNBbEdTSndOZ2lRSEVRa1BNQzg2dDEwdlo5OS1fSkw5YnFQU0FxVTNHVDVzV0JiV1o3Q3h1OWZhNkptaUs3S2Vob2dSYWQ0VzFiUk84czljMGxTSVBPSEVIbnlOZXVYUzc4b0tSdDg3ckRPTk1pMktGSEhzZVhTNlpMOVNPV01ndTRpYUtUV0NlNTZ2bWFPR1JDX0lyaHdtUDJEV1pYckhvNFhQVThySDIwWVIyenF5Snc4b0NDclA5UW44Qm1DMzI2TE93ZTAzcE81aFNLallDMnJsM3FVN0pTalZYcnNDNXl0MXFIeUNmTE5Yc0d6anlFMnUwSGEtMkRSRjZLTEN4c1loTWhJcTNIUWVQcGVkVjh3RUpzZ0Q1OEI2eVJRcmx1Q1FrV1dhTXVtNWdpVUVyM0Itcmw4UWhyM0hRREpTYm1aOE83cktKd1hYWWlRcmJjMWI2c19XeXg3SGpVMk00YXIya0JNRHNPTG84dXNvcGR1RHptUEpRWmhta1VtMl9iVlZRVHViYkZJRy1IbzRTdy1LdEpyazdMT0RtQmVsQUxteU9mTDU0TmdCN082R04tVmUteVZfelZxSlFVUkFrb2lma25JbE42dmtGN3JzTE0wbWIwVFBaYkxzT29zZDhvR2xET1pkeVY3UC15UjNTVXBURGFlMHNib3NyMVBCb1lNYkJhZ2RMXzJOd0k2NGtneVpRRDdFemhYbzZWRlZPRVNqekRnbmRXYW9rQzllYW5pWHdiY3A2eUhrRlZpOU51djhjTk1UZy12ZHNVcllZRmZNdEJLV0tWczJtekd2Q01JUjl6LXU0ZWNzNWtSR2lQeUtCbFB0b0pCdGU2LVRqVGV2czd0N0tqVnctYlBLVEdka214bmJONGRfNks0akEzWjZRRW5DdHdpVmlIUHViX1ZFbHR5M0FFZUg5cm5zQTdyM1Z0dnRIRnlSUHQyS01qQnRaam9CRHYxSmtjVmtpQWdONE1EcDhLTnFNa0w0bUpzRzFKWi1xOXlmRWVsNXpOQXlQU3F6LWl3cml2Yk1JRFJlcU1XT3JPaEtvdkdSb21xeW5UdXdVa2FleHowY2xKRW5SUlQtd1RyMV9TdUs0ZV9pQl0tLT48L2c+PC9zdmc+;" vertex="1" parent="1">
            <mxGeometry x="-3760" y="-5220" width="762" height="1574" as="geometry" />
          </mxCell>
        </UserObject>
        <UserObject label="" plantUmlData="{&#xa;  &quot;data&quot;: &quot;@startuml\nactor Student\nactor Teacher\n\nrectangle Chatbot {\n  usecase \&quot;Understand Objectives\&quot; as UC1\n  usecase \&quot;Collect Dataset\&quot; as UC2\n  usecase \&quot;Design Architecture\&quot; as UC3\n  usecase \&quot;Build and Train Model\&quot; as UC4\n  usecase \&quot;Test Chatbot\&quot; as UC5\n  usecase \&quot;Deploy Chatbot\&quot; as UC6\n  usecase \&quot;Provide Feedback\&quot; as UC7\n}\n\nStudent --&gt; UC5 : Tests\nStudent --&gt; UC6 : Uses\nStudent --&gt; UC7 : Provides Feedback\n\nTeacher --&gt; UC2 : Provides Insights\nTeacher --&gt; UC7 : Provides Feedback\n\nUC1 --&gt; UC2\nUC2 --&gt; UC3\nUC3 --&gt; UC4\nUC4 --&gt; UC5\nUC5 --&gt; UC6\nUC6 --&gt; UC7\n@enduml\n&quot;,&#xa;  &quot;format&quot;: &quot;svg&quot;&#xa;}" id="qCDn8xHbFD4i_Utl2qND-7">
          <mxCell style="shape=image;noLabel=1;verticalAlign=top;aspect=fixed;imageAspect=0;image=data:image/svg+xml,PD94bWwgdmVyc2lvbj0iMS4wIiBlbmNvZGluZz0idXMtYXNjaWkiIHN0YW5kYWxvbmU9Im5vIj8+PHN2ZyB4bWxucz0iaHR0cDovL3d3dy53My5vcmcvMjAwMC9zdmciIHhtbG5zOnhsaW5rPSJodHRwOi8vd3d3LnczLm9yZy8xOTk5L3hsaW5rIiBjb250ZW50U3R5bGVUeXBlPSJ0ZXh0L2NzcyIgaGVpZ2h0PSI3NzRweCIgcHJlc2VydmVBc3BlY3RSYXRpbz0ibm9uZSIgc3R5bGU9IndpZHRoOjU3NHB4O2hlaWdodDo3NzRweDtiYWNrZ3JvdW5kOiNGRkZGRkY7IiB2ZXJzaW9uPSIxLjEiIHZpZXdCb3g9IjAgMCA1NzQgNzc0IiB3aWR0aD0iNTc0cHgiIHpvb21BbmRQYW49Im1hZ25pZnkiPjxkZWZzLz48Zz48IS0tY2x1c3RlciBDaGF0Ym90LS0+PGcgaWQ9ImNsdXN0ZXJfQ2hhdGJvdCI+PHJlY3QgZmlsbD0ibm9uZSIgaGVpZ2h0PSI3NjEiIHJ4PSIyLjUiIHJ5PSIyLjUiIHN0eWxlPSJzdHJva2U6IzE4MTgxODtzdHJva2Utd2lkdGg6MS4wOyIgd2lkdGg9IjIxNCIgeD0iNyIgeT0iNyIvPjx0ZXh0IGZpbGw9IiMwMDAwMDAiIGZvbnQtZmFtaWx5PSJzYW5zLXNlcmlmIiBmb250LXNpemU9IjE0IiBmb250LXdlaWdodD0iYm9sZCIgbGVuZ3RoQWRqdXN0PSJzcGFjaW5nIiB0ZXh0TGVuZ3RoPSI0OSIgeD0iODkuNSIgeT0iMjIuMjM0NCI+Q2hhdGJvdDwvdGV4dD48L2c+PGcgaWQ9ImVsZW1fVUMxIj48ZWxsaXBzZSBjeD0iMTEzLjg4MzkiIGN5PSI2MC41NzY4IiBmaWxsPSIjRjFGMUYxIiByeD0iOTAuODgzOSIgcnk9IjIwLjU3NjgiIHN0eWxlPSJzdHJva2U6IzE4MTgxODtzdHJva2Utd2lkdGg6MC41OyIvPjx0ZXh0IGZpbGw9IiMwMDAwMDAiIGZvbnQtZmFtaWx5PSJzYW5zLXNlcmlmIiBmb250LXNpemU9IjE0IiBsZW5ndGhBZGp1c3Q9InNwYWNpbmciIHRleHRMZW5ndGg9IjE0NyIgeD0iNDAuMzgzOSIgeT0iNjQuMzE5Ij5VbmRlcnN0YW5kIE9iamVjdGl2ZXM8L3RleHQ+PC9nPjxnIGlkPSJlbGVtX1VDMiI+PGVsbGlwc2UgY3g9IjExMy45NjYzIiBjeT0iMTg5Ljg5MzMiIGZpbGw9IiNGMUYxRjEiIHJ4PSI3Mi40NjYzIiByeT0iMTYuODkzMyIgc3R5bGU9InN0cm9rZTojMTgxODE4O3N0cm9rZS13aWR0aDowLjU7Ii8+PHRleHQgZmlsbD0iIzAwMDAwMCIgZm9udC1mYW1pbHk9InNhbnMtc2VyaWYiIGZvbnQtc2l6ZT0iMTQiIGxlbmd0aEFkanVzdD0ic3BhY2luZyIgdGV4dExlbmd0aD0iMTA1IiB4PSI2MS40NjYzIiB5PSIxOTMuNjM1NSI+Q29sbGVjdCBEYXRhc2V0PC90ZXh0PjwvZz48ZyBpZD0iZWxlbV9VQzMiPjxlbGxpcHNlIGN4PSIxMTQuMTA2MiIgY3k9IjI4Ny4zMjEyIiBmaWxsPSIjRjFGMUYxIiByeD0iODQuNjA2MiIgcnk9IjE5LjMyMTIiIHN0eWxlPSJzdHJva2U6IzE4MTgxODtzdHJva2Utd2lkdGg6MC41OyIvPjx0ZXh0IGZpbGw9IiMwMDAwMDAiIGZvbnQtZmFtaWx5PSJzYW5zLXNlcmlmIiBmb250LXNpemU9IjE0IiBsZW5ndGhBZGp1c3Q9InNwYWNpbmciIHRleHRMZW5ndGg9IjEzMyIgeD0iNDcuNjA2MiIgeT0iMjkxLjA2MzQiPkRlc2lnbiBBcmNoaXRlY3R1cmU8L3RleHQ+PC9nPjxnIGlkPSJlbGVtX1VDNCI+PGVsbGlwc2UgY3g9IjExMy44ODM5IiBjeT0iNDA1LjU3NjgiIGZpbGw9IiNGMUYxRjEiIHJ4PSI5MC44ODM5IiByeT0iMjAuNTc2OCIgc3R5bGU9InN0cm9rZTojMTgxODE4O3N0cm9rZS13aWR0aDowLjU7Ii8+PHRleHQgZmlsbD0iIzAwMDAwMCIgZm9udC1mYW1pbHk9InNhbnMtc2VyaWYiIGZvbnQtc2l6ZT0iMTQiIGxlbmd0aEFkanVzdD0ic3BhY2luZyIgdGV4dExlbmd0aD0iMTQ3IiB4PSI0MC4zODM5IiB5PSI0MDkuMzE5Ij5CdWlsZCBhbmQgVHJhaW4gTW9kZWw8L3RleHQ+PC9nPjxnIGlkPSJlbGVtX1VDNSI+PGVsbGlwc2UgY3g9Ijg2Ljg4NzgiIGN5PSI1MzMuMTc3NiIgZmlsbD0iI0YxRjFGMSIgcng9IjYzLjg4NzgiIHJ5PSIxNS4xNzc2IiBzdHlsZT0ic3Ryb2tlOiMxODE4MTg7c3Ryb2tlLXdpZHRoOjAuNTsiLz48dGV4dCBmaWxsPSIjMDAwMDAwIiBmb250LWZhbWlseT0ic2Fucy1zZXJpZiIgZm9udC1zaXplPSIxNCIgbGVuZ3RoQWRqdXN0PSJzcGFjaW5nIiB0ZXh0TGVuZ3RoPSI4NCIgeD0iNDQuODg3OCIgeT0iNTM2LjkxOTciPlRlc3QgQ2hhdGJvdDwvdGV4dD48L2c+PGcgaWQ9ImVsZW1fVUM2Ij48ZWxsaXBzZSBjeD0iMTI5LjA0NTYiIGN5PSI2MzkuMzA5MSIgZmlsbD0iI0YxRjFGMSIgcng9IjY5LjU0NTYiIHJ5PSIxNi4zMDkxIiBzdHlsZT0ic3Ryb2tlOiMxODE4MTg7c3Ryb2tlLXdpZHRoOjAuNTsiLz48dGV4dCBmaWxsPSIjMDAwMDAwIiBmb250LWZhbWlseT0ic2Fucy1zZXJpZiIgZm9udC1zaXplPSIxNCIgbGVuZ3RoQWRqdXN0PSJzcGFjaW5nIiB0ZXh0TGVuZ3RoPSI5OCIgeD0iODAuMDQ1NiIgeT0iNjQzLjA1MTMiPkRlcGxveSBDaGF0Ym90PC90ZXh0PjwvZz48ZyBpZD0iZWxlbV9VQzciPjxlbGxpcHNlIGN4PSIxMjguOTM4NCIgY3k9IjczNC40ODc3IiBmaWxsPSIjRjFGMUYxIiByeD0iNzUuNDM4NCIgcnk9IjE3LjQ4NzciIHN0eWxlPSJzdHJva2U6IzE4MTgxODtzdHJva2Utd2lkdGg6MC41OyIvPjx0ZXh0IGZpbGw9IiMwMDAwMDAiIGZvbnQtZmFtaWx5PSJzYW5zLXNlcmlmIiBmb250LXNpemU9IjE0IiBsZW5ndGhBZGp1c3Q9InNwYWNpbmciIHRleHRMZW5ndGg9IjExMiIgeD0iNzIuOTM4NCIgeT0iNzM4LjIyOTkiPlByb3ZpZGUgRmVlZGJhY2s8L3RleHQ+PC9nPjwhLS1lbnRpdHkgU3R1ZGVudC0tPjxnIGlkPSJlbGVtX1N0dWRlbnQiPjxlbGxpcHNlIGN4PSIyNjUiIGN5PSIzNzYuNSIgZmlsbD0iI0YxRjFGMSIgcng9IjgiIHJ5PSI4IiBzdHlsZT0ic3Ryb2tlOiMxODE4MTg7c3Ryb2tlLXdpZHRoOjAuNTsiLz48cGF0aCBkPSJNMjY1LDM4NC41IEwyNjUsNDExLjUgTTI1MiwzOTIuNSBMMjc4LDM5Mi41IE0yNjUsNDExLjUgTDI1Miw0MjYuNSBNMjY1LDQxMS41IEwyNzgsNDI2LjUgIiBmaWxsPSJub25lIiBzdHlsZT0ic3Ryb2tlOiMxODE4MTg7c3Ryb2tlLXdpZHRoOjAuNTsiLz48dGV4dCBmaWxsPSIjMDAwMDAwIiBmb250LWZhbWlseT0ic2Fucy1zZXJpZiIgZm9udC1zaXplPSIxNCIgbGVuZ3RoQWRqdXN0PSJzcGFjaW5nIiB0ZXh0TGVuZ3RoPSI0OSIgeD0iMjQwLjUiIHk9IjQ0MS4yMzQ0Ij5TdHVkZW50PC90ZXh0PjwvZz48IS0tZW50aXR5IFRlYWNoZXItLT48ZyBpZD0iZWxlbV9UZWFjaGVyIj48ZWxsaXBzZSBjeD0iMzU2IiBjeT0iMzEuNSIgZmlsbD0iI0YxRjFGMSIgcng9IjgiIHJ5PSI4IiBzdHlsZT0ic3Ryb2tlOiMxODE4MTg7c3Ryb2tlLXdpZHRoOjAuNTsiLz48cGF0aCBkPSJNMzU2LDM5LjUgTDM1Niw2Ni41IE0zNDMsNDcuNSBMMzY5LDQ3LjUgTTM1Niw2Ni41IEwzNDMsODEuNSBNMzU2LDY2LjUgTDM2OSw4MS41ICIgZmlsbD0ibm9uZSIgc3R5bGU9InN0cm9rZTojMTgxODE4O3N0cm9rZS13aWR0aDowLjU7Ii8+PHRleHQgZmlsbD0iIzAwMDAwMCIgZm9udC1mYW1pbHk9InNhbnMtc2VyaWYiIGZvbnQtc2l6ZT0iMTQiIGxlbmd0aEFkanVzdD0ic3BhY2luZyIgdGV4dExlbmd0aD0iNDkiIHg9IjMzMS41IiB5PSI5Ni4yMzQ0Ij5UZWFjaGVyPC90ZXh0PjwvZz48IS0tbGluayBTdHVkZW50IHRvIFVDNS0tPjxnIGlkPSJsaW5rX1N0dWRlbnRfVUM1Ij48cGF0aCBkPSJNMjQwLjE5LDQyOC44IEMyMzQuMTIsNDMzLjc2IDIyNy41LDQzOC43OSAyMjEsNDQzIEMxOTUuNjQsNDU5LjQzIDE4NS40Niw0NTYuNzQgMTYwLDQ3MyBDMTM4LjU4LDQ4Ni42OCAxMjAuNjQwOCw1MDEuNjA5NyAxMDYuMzkwOCw1MTQuMjk5NyAiIGZpbGw9Im5vbmUiIGlkPSJTdHVkZW50LXRvLVVDNSIgc3R5bGU9InN0cm9rZTojMTgxODE4O3N0cm9rZS13aWR0aDoxLjA7Ii8+PHBvbHlnb24gZmlsbD0iIzE4MTgxOCIgcG9pbnRzPSIxMDEuOTEsNTE4LjI5LDExMS4yOTE0LDUxNS4yOTE4LDEwNS42NDQsNTE0Ljk2NDgsMTA1Ljk3MSw1MDkuMzE3NCwxMDEuOTEsNTE4LjI5IiBzdHlsZT0ic3Ryb2tlOiMxODE4MTg7c3Ryb2tlLXdpZHRoOjEuMDsiLz48dGV4dCBmaWxsPSIjMDAwMDAwIiBmb250LWZhbWlseT0ic2Fucy1zZXJpZiIgZm9udC1zaXplPSIxMyIgbGVuZ3RoQWRqdXN0PSJzcGFjaW5nIiB0ZXh0TGVuZ3RoPSIzMyIgeD0iMTYxIiB5PSI0ODYuMjg5MSI+VGVzdHM8L3RleHQ+PC9nPjwhLS1saW5rIFN0dWRlbnQgdG8gVUM2LS0+PGcgaWQ9ImxpbmtfU3R1ZGVudF9VQzYiPjxwYXRoIGQ9Ik0yNDMuNiw0NDMuMDEgQzIxMy4zOCw0OTQuNTYgMTYyLjUzNDIsNTgxLjI5MzggMTQxLjE0NDIsNjE3Ljc4MzggIiBmaWxsPSJub25lIiBpZD0iU3R1ZGVudC10by1VQzYiIHN0eWxlPSJzdHJva2U6IzE4MTgxODtzdHJva2Utd2lkdGg6MS4wOyIvPjxwb2x5Z29uIGZpbGw9IiMxODE4MTgiIHBvaW50cz0iMTM4LjExLDYyMi45NiwxNDYuMTEyMiw2MTcuMjE4NSwxNDAuNjM4NSw2MTguNjQ2NSwxMzkuMjEwNSw2MTMuMTcyOCwxMzguMTEsNjIyLjk2IiBzdHlsZT0ic3Ryb2tlOiMxODE4MTg7c3Ryb2tlLXdpZHRoOjEuMDsiLz48dGV4dCBmaWxsPSIjMDAwMDAwIiBmb250LWZhbWlseT0ic2Fucy1zZXJpZiIgZm9udC1zaXplPSIxMyIgbGVuZ3RoQWRqdXN0PSJzcGFjaW5nIiB0ZXh0TGVuZ3RoPSIyOCIgeD0iMjAwIiB5PSI1MzguNzg5MSI+VXNlczwvdGV4dD48L2c+PCEtLWxpbmsgU3R1ZGVudCB0byBVQzctLT48ZyBpZD0ibGlua19TdHVkZW50X1VDNyI+PHBhdGggZD0iTTI2NC45Niw0NDMuMyBDMjYzLjM3LDQ5NC4zMiAyNTQuODMsNTg3Ljk0IDIxNiw2NTYgQzIwMS4wNiw2ODIuMTggMTc4Ljk3OTIsNzAwLjczMzUgMTU4Ljk5OTIsNzE0LjUxMzUgIiBmaWxsPSJub25lIiBpZD0iU3R1ZGVudC10by1VQzciIHN0eWxlPSJzdHJva2U6IzE4MTgxODtzdHJva2Utd2lkdGg6MS4wOyIvPjxwb2x5Z29uIGZpbGw9IiMxODE4MTgiIHBvaW50cz0iMTU0LjA2LDcxNy45MiwxNjMuNzM5OCw3MTYuMTAzLDE1OC4xNzYsNzE1LjA4MTIsMTU5LjE5NzgsNzA5LjUxNzQsMTU0LjA2LDcxNy45MiIgc3R5bGU9InN0cm9rZTojMTgxODE4O3N0cm9rZS13aWR0aDoxLjA7Ii8+PHRleHQgZmlsbD0iIzAwMDAwMCIgZm9udC1mYW1pbHk9InNhbnMtc2VyaWYiIGZvbnQtc2l6ZT0iMTMiIGxlbmd0aEFkanVzdD0ic3BhY2luZyIgdGV4dExlbmd0aD0iMTE4IiB4PSIyNDciIHk9IjU5MS4yODkxIj5Qcm92aWRlcyBGZWVkYmFjazwvdGV4dD48L2c+PCEtLWxpbmsgVGVhY2hlciB0byBVQzItLT48ZyBpZD0ibGlua19UZWFjaGVyX1VDMiI+PHBhdGggZD0iTTMzMS40Niw3NC40MyBDMjg2LjE2LDk4LjI5IDE5NC45Nzg0LDE0Ni4zMzM1IDE0Ny4yMzg0LDE3MS40ODM1ICIgZmlsbD0ibm9uZSIgaWQ9IlRlYWNoZXItdG8tVUMyIiBzdHlsZT0ic3Ryb2tlOiMxODE4MTg7c3Ryb2tlLXdpZHRoOjEuMDsiLz48cG9seWdvbiBmaWxsPSIjMTgxODE4IiBwb2ludHM9IjE0MS45MywxNzQuMjgsMTUxLjc1NywxNzMuNjI0MSwxNDYuMzUzNywxNzEuOTQ5NSwxNDguMDI4MywxNjYuNTQ2MiwxNDEuOTMsMTc0LjI4IiBzdHlsZT0ic3Ryb2tlOiMxODE4MTg7c3Ryb2tlLXdpZHRoOjEuMDsiLz48dGV4dCBmaWxsPSIjMDAwMDAwIiBmb250LWZhbWlseT0ic2Fucy1zZXJpZiIgZm9udC1zaXplPSIxMyIgbGVuZ3RoQWRqdXN0PSJzcGFjaW5nIiB0ZXh0TGVuZ3RoPSIxMTUiIHg9IjIyOCIgeT0iMTQxLjI4OTEiPlByb3ZpZGVzIEluc2lnaHRzPC90ZXh0PjwvZz48IS0tbGluayBUZWFjaGVyIHRvIFVDNy0tPjxnIGlkPSJsaW5rX1RlYWNoZXJfVUM3Ij48cGF0aCBkPSJNMzgwLjg3LDgwLjE0IEM0MDcuODEsMTAyLjY4IDQ0NywxNDMuMzEgNDQ3LDE4OSBDNDQ3LDE4OSA0NDcsMTg5IDQ0Nyw2NDAuNSBDNDQ3LDY5MS45OCAyOTcuNDkzNiw3MTYuMjgwMSAyMDMuOTYzNiw3MjYuNjMwMSAiIGZpbGw9Im5vbmUiIGlkPSJUZWFjaGVyLXRvLVVDNyIgc3R5bGU9InN0cm9rZTojMTgxODE4O3N0cm9rZS13aWR0aDoxLjA7Ii8+PHBvbHlnb24gZmlsbD0iIzE4MTgxOCIgcG9pbnRzPSIxOTgsNzI3LjI5LDIwNy4zODUzLDczMC4yNzU4LDIwMi45Njk3LDcyNi43NDAxLDIwNi41MDU0LDcyMi4zMjQ0LDE5OCw3MjcuMjkiIHN0eWxlPSJzdHJva2U6IzE4MTgxODtzdHJva2Utd2lkdGg6MS4wOyIvPjx0ZXh0IGZpbGw9IiMwMDAwMDAiIGZvbnQtZmFtaWx5PSJzYW5zLXNlcmlmIiBmb250LXNpemU9IjEzIiBsZW5ndGhBZGp1c3Q9InNwYWNpbmciIHRleHRMZW5ndGg9IjExOCIgeD0iNDQ4IiB5PSI0MTEuMjg5MSI+UHJvdmlkZXMgRmVlZGJhY2s8L3RleHQ+PC9nPjwhLS1saW5rIFVDMSB0byBVQzItLT48ZyBpZD0ibGlua19VQzFfVUMyIj48cGF0aCBkPSJNMTE0LDgxLjE0IEMxMTQsMTA2LjI5IDExNCwxNDMuNCAxMTQsMTY2Ljc4ICIgZmlsbD0ibm9uZSIgaWQ9IlVDMS10by1VQzIiIHN0eWxlPSJzdHJva2U6IzE4MTgxODtzdHJva2Utd2lkdGg6MS4wOyIvPjxwb2x5Z29uIGZpbGw9IiMxODE4MTgiIHBvaW50cz0iMTE0LDE3Mi43OCwxMTgsMTYzLjc4LDExNCwxNjcuNzgsMTEwLDE2My43OCwxMTQsMTcyLjc4IiBzdHlsZT0ic3Ryb2tlOiMxODE4MTg7c3Ryb2tlLXdpZHRoOjEuMDsiLz48L2c+PCEtLWxpbmsgVUMyIHRvIFVDMy0tPjxnIGlkPSJsaW5rX1VDMl9VQzMiPjxwYXRoIGQ9Ik0xMTQsMjA3LjIgQzExNCwyMjQuMDIgMTE0LDI0NC4yOCAxMTQsMjYxLjkzICIgZmlsbD0ibm9uZSIgaWQ9IlVDMi10by1VQzMiIHN0eWxlPSJzdHJva2U6IzE4MTgxODtzdHJva2Utd2lkdGg6MS4wOyIvPjxwb2x5Z29uIGZpbGw9IiMxODE4MTgiIHBvaW50cz0iMTE0LDI2Ny45MywxMTgsMjU4LjkzLDExNCwyNjIuOTMsMTEwLDI1OC45MywxMTQsMjY3LjkzIiBzdHlsZT0ic3Ryb2tlOiMxODE4MTg7c3Ryb2tlLXdpZHRoOjEuMDsiLz48L2c+PCEtLWxpbmsgVUMzIHRvIFVDNC0tPjxnIGlkPSJsaW5rX1VDM19VQzQiPjxwYXRoIGQ9Ik0xMTQsMzA3LjE0IEMxMTQsMzI4LjQgMTE0LDM1Ny4wMyAxMTQsMzc4Ljc0ICIgZmlsbD0ibm9uZSIgaWQ9IlVDMy10by1VQzQiIHN0eWxlPSJzdHJva2U6IzE4MTgxODtzdHJva2Utd2lkdGg6MS4wOyIvPjxwb2x5Z29uIGZpbGw9IiMxODE4MTgiIHBvaW50cz0iMTE0LDM4NC43NCwxMTgsMzc1Ljc0LDExNCwzNzkuNzQsMTEwLDM3NS43NCwxMTQsMzg0Ljc0IiBzdHlsZT0ic3Ryb2tlOiMxODE4MTg7c3Ryb2tlLXdpZHRoOjEuMDsiLz48L2c+PCEtLWxpbmsgVUM0IHRvIFVDNS0tPjxnIGlkPSJsaW5rX1VDNF9VQzUiPjxwYXRoIGQ9Ik0xMDkuNzgsNDI2LjExIEMxMDQuMjksNDUxLjYyIDk2LjEwMTYsNDg5LjY5NDEgOTEuMjgxNiw1MTIuMTA0MSAiIGZpbGw9Im5vbmUiIGlkPSJVQzQtdG8tVUM1IiBzdHlsZT0ic3Ryb2tlOiMxODE4MTg7c3Ryb2tlLXdpZHRoOjEuMDsiLz48cG9seWdvbiBmaWxsPSIjMTgxODE4IiBwb2ludHM9IjkwLjAyLDUxNy45Nyw5NS44MjMsNTEwLjAxMjMsOTEuMDcxNCw1MTMuMDgxOCw4OC4wMDE5LDUwOC4zMzAxLDkwLjAyLDUxNy45NyIgc3R5bGU9InN0cm9rZTojMTgxODE4O3N0cm9rZS13aWR0aDoxLjA7Ii8+PC9nPjwhLS1saW5rIFVDNSB0byBVQzYtLT48ZyBpZD0ibGlua19VQzVfVUM2Ij48cGF0aCBkPSJNOTIuNjYsNTQ4LjA5IEMxMDAuNSw1NjcuNTkgMTEyLjM2MjIsNTk3LjExMjkgMTIwLjUwMjIsNjE3LjM2MjkgIiBmaWxsPSJub25lIiBpZD0iVUM1LXRvLVVDNiIgc3R5bGU9InN0cm9rZTojMTgxODE4O3N0cm9rZS13aWR0aDoxLjA7Ii8+PHBvbHlnb24gZmlsbD0iIzE4MTgxOCIgcG9pbnRzPSIxMjIuNzQsNjIyLjkzLDEyMy4wOTQ2LDYxMy4wODc1LDEyMC44NzUxLDYxOC4yOTA4LDExNS42NzE5LDYxNi4wNzEzLDEyMi43NCw2MjIuOTMiIHN0eWxlPSJzdHJva2U6IzE4MTgxODtzdHJva2Utd2lkdGg6MS4wOyIvPjwvZz48IS0tbGluayBVQzYgdG8gVUM3LS0+PGcgaWQ9ImxpbmtfVUM2X1VDNyI+PHBhdGggZD0iTTEyOSw2NTYuMjggQzEyOSw2NzMuMDcgMTI5LDY5My41MyAxMjksNzEwLjcgIiBmaWxsPSJub25lIiBpZD0iVUM2LXRvLVVDNyIgc3R5bGU9InN0cm9rZTojMTgxODE4O3N0cm9rZS13aWR0aDoxLjA7Ii8+PHBvbHlnb24gZmlsbD0iIzE4MTgxOCIgcG9pbnRzPSIxMjksNzE2LjcsMTMzLDcwNy43LDEyOSw3MTEuNywxMjUsNzA3LjcsMTI5LDcxNi43IiBzdHlsZT0ic3Ryb2tlOiMxODE4MTg7c3Ryb2tlLXdpZHRoOjEuMDsiLz48L2c+PCEtLVNSQz1bVFAxMUltQ240OE5seW9rNnRka21OTGxtOEVXTW1PQ2VrRmkzaWlkR0pHczk5RGMyWUZfVFlTdkFrazNqdlN0N2N5YkpFZVU4aHRhb3YzRWVkclQ3SWV5SzBJQmZoRnBINFJRWm9hRjgtMGM4S29BajRrNmd6dVBZT2lCV3l0MVlyZnVmaEwwYnhEa2g2Y28zU3BwNld5aHlwZTlpUWtIMG9IdXp0YUt6c2lwaTU0Y21ST3RUSnpPUEIxa3hnQXA3ZnMzODJUWktPNFNmcHJWQl9GZm90eGlCN21qWUxuQ2xDUG9qOE5tV0NlRklSeUJpdUdqMC1pQnItaE80dW1zTVZNZFh4elpsNG90akZUaUlkbHhJMFFIcldKT3J6RVl2ZDk3cEJ2Yl9XaFp5RUdIQXFBX1VpandBUmJXdHlfNUdGWTA3R3BiUW1oeTFdLS0+PC9nPjwvc3ZnPg==;" vertex="1" parent="1">
            <mxGeometry x="-4019" y="-3070" width="574" height="774" as="geometry" />
          </mxCell>
        </UserObject>
        <UserObject label="" plantUmlData="{&#xa;  &quot;data&quot;: &quot;@startuml\nactor Student\n\nrectangle Chatbot {\n  usecase \&quot;Test Chatbot\&quot; as UC1\n  usecase \&quot;Use Chatbot\&quot; as UC2\n  usecase \&quot;Provide Feedback\&quot; as UC3\n}\n\nStudent --&gt; UC1\nStudent --&gt; UC2\nStudent --&gt; UC3\n@enduml\n&quot;,&#xa;  &quot;format&quot;: &quot;svg&quot;&#xa;}" id="qCDn8xHbFD4i_Utl2qND-12">
          <mxCell style="shape=image;noLabel=1;verticalAlign=top;aspect=fixed;imageAspect=0;image=data:image/svg+xml,PD94bWwgdmVyc2lvbj0iMS4wIiBlbmNvZGluZz0idXMtYXNjaWkiIHN0YW5kYWxvbmU9Im5vIj8+PHN2ZyB4bWxucz0iaHR0cDovL3d3dy53My5vcmcvMjAwMC9zdmciIHhtbG5zOnhsaW5rPSJodHRwOi8vd3d3LnczLm9yZy8xOTk5L3hsaW5rIiBjb250ZW50U3R5bGVUeXBlPSJ0ZXh0L2NzcyIgaGVpZ2h0PSIxOTdweCIgcHJlc2VydmVBc3BlY3RSYXRpbz0ibm9uZSIgc3R5bGU9IndpZHRoOjUxN3B4O2hlaWdodDoxOTdweDtiYWNrZ3JvdW5kOiNGRkZGRkY7IiB2ZXJzaW9uPSIxLjEiIHZpZXdCb3g9IjAgMCA1MTcgMTk3IiB3aWR0aD0iNTE3cHgiIHpvb21BbmRQYW49Im1hZ25pZnkiPjxkZWZzLz48Zz48IS0tY2x1c3RlciBDaGF0Ym90LS0+PGcgaWQ9ImNsdXN0ZXJfQ2hhdGJvdCI+PHJlY3QgZmlsbD0ibm9uZSIgaGVpZ2h0PSI4NCIgcng9IjIuNSIgcnk9IjIuNSIgc3R5bGU9InN0cm9rZTojMTgxODE4O3N0cm9rZS13aWR0aDoxLjA7IiB3aWR0aD0iNTA0IiB4PSI3IiB5PSIxMDcuNSIvPjx0ZXh0IGZpbGw9IiMwMDAwMDAiIGZvbnQtZmFtaWx5PSJzYW5zLXNlcmlmIiBmb250LXNpemU9IjE0IiBmb250LXdlaWdodD0iYm9sZCIgbGVuZ3RoQWRqdXN0PSJzcGFjaW5nIiB0ZXh0TGVuZ3RoPSI0OSIgeD0iMjM0LjUiIHk9IjEyMi43MzQ0Ij5DaGF0Ym90PC90ZXh0PjwvZz48ZyBpZD0iZWxlbV9VQzEiPjxlbGxpcHNlIGN4PSI0MzAuODg3OCIgY3k9IjE1OC4xNzc2IiBmaWxsPSIjRjFGMUYxIiByeD0iNjMuODg3OCIgcnk9IjE1LjE3NzYiIHN0eWxlPSJzdHJva2U6IzE4MTgxODtzdHJva2Utd2lkdGg6MC41OyIvPjx0ZXh0IGZpbGw9IiMwMDAwMDAiIGZvbnQtZmFtaWx5PSJzYW5zLXNlcmlmIiBmb250LXNpemU9IjE0IiBsZW5ndGhBZGp1c3Q9InNwYWNpbmciIHRleHRMZW5ndGg9Ijg0IiB4PSIzODguODg3OCIgeT0iMTYxLjkxOTciPlRlc3QgQ2hhdGJvdDwvdGV4dD48L2c+PGcgaWQ9ImVsZW1fVUMyIj48ZWxsaXBzZSBjeD0iMjcxLjE2ODUiIGN5PSIxNTguMTMzNyIgZmlsbD0iI0YxRjFGMSIgcng9IjYxLjE2ODUiIHJ5PSIxNC42MzM3IiBzdHlsZT0ic3Ryb2tlOiMxODE4MTg7c3Ryb2tlLXdpZHRoOjAuNTsiLz48dGV4dCBmaWxsPSIjMDAwMDAwIiBmb250LWZhbWlseT0ic2Fucy1zZXJpZiIgZm9udC1zaXplPSIxNCIgbGVuZ3RoQWRqdXN0PSJzcGFjaW5nIiB0ZXh0TGVuZ3RoPSI3NyIgeD0iMjMyLjY2ODUiIHk9IjE2MS44NzU5Ij5Vc2UgQ2hhdGJvdDwvdGV4dD48L2c+PGcgaWQ9ImVsZW1fVUMzIj48ZWxsaXBzZSBjeD0iOTguOTM4NCIgY3k9IjE1Ny45ODc3IiBmaWxsPSIjRjFGMUYxIiByeD0iNzUuNDM4NCIgcnk9IjE3LjQ4NzciIHN0eWxlPSJzdHJva2U6IzE4MTgxODtzdHJva2Utd2lkdGg6MC41OyIvPjx0ZXh0IGZpbGw9IiMwMDAwMDAiIGZvbnQtZmFtaWx5PSJzYW5zLXNlcmlmIiBmb250LXNpemU9IjE0IiBsZW5ndGhBZGp1c3Q9InNwYWNpbmciIHRleHRMZW5ndGg9IjExMiIgeD0iNDIuOTM4NCIgeT0iMTYxLjcyOTkiPlByb3ZpZGUgRmVlZGJhY2s8L3RleHQ+PC9nPjwhLS1lbnRpdHkgU3R1ZGVudC0tPjxnIGlkPSJlbGVtX1N0dWRlbnQiPjxlbGxpcHNlIGN4PSIyNzEiIGN5PSIxNCIgZmlsbD0iI0YxRjFGMSIgcng9IjgiIHJ5PSI4IiBzdHlsZT0ic3Ryb2tlOiMxODE4MTg7c3Ryb2tlLXdpZHRoOjAuNTsiLz48cGF0aCBkPSJNMjcxLDIyIEwyNzEsNDkgTTI1OCwzMCBMMjg0LDMwIE0yNzEsNDkgTDI1OCw2NCBNMjcxLDQ5IEwyODQsNjQgIiBmaWxsPSJub25lIiBzdHlsZT0ic3Ryb2tlOiMxODE4MTg7c3Ryb2tlLXdpZHRoOjAuNTsiLz48dGV4dCBmaWxsPSIjMDAwMDAwIiBmb250LWZhbWlseT0ic2Fucy1zZXJpZiIgZm9udC1zaXplPSIxNCIgbGVuZ3RoQWRqdXN0PSJzcGFjaW5nIiB0ZXh0TGVuZ3RoPSI0OSIgeD0iMjQ2LjUiIHk9Ijc4LjczNDQiPlN0dWRlbnQ8L3RleHQ+PC9nPjwhLS1saW5rIFN0dWRlbnQgdG8gVUMxLS0+PGcgaWQ9ImxpbmtfU3R1ZGVudF9VQzEiPjxwYXRoIGQ9Ik0yOTUuNTgsNjEuMjIgQzMxMS4xOCw3Mi4xNiAzMzEuNzksODYuNjQgMzUwLDk5LjUgQzM3MS4yNywxMTQuNTIgMzkwLjc0MTQsMTI4LjM1MTMgNDA3LjE0MTQsMTQwLjAyMTMgIiBmaWxsPSJub25lIiBpZD0iU3R1ZGVudC10by1VQzEiIHN0eWxlPSJzdHJva2U6IzE4MTgxODtzdHJva2Utd2lkdGg6MS4wOyIvPjxwb2x5Z29uIGZpbGw9IiMxODE4MTgiIHBvaW50cz0iNDEyLjAzLDE0My41LDQwNy4wMTYyLDEzNS4wMjI5LDQwNy45NTYxLDE0MC42MDExLDQwMi4zNzc5LDE0MS41NDExLDQxMi4wMywxNDMuNSIgc3R5bGU9InN0cm9rZTojMTgxODE4O3N0cm9rZS13aWR0aDoxLjA7Ii8+PC9nPjwhLS1saW5rIFN0dWRlbnQgdG8gVUMyLS0+PGcgaWQ9ImxpbmtfU3R1ZGVudF9VQzIiPjxwYXRoIGQ9Ik0yNzEsODAuNjkgQzI3MSwxMDIuMDggMjcxLDEyMS44MiAyNzEsMTM3LjI3ICIgZmlsbD0ibm9uZSIgaWQ9IlN0dWRlbnQtdG8tVUMyIiBzdHlsZT0ic3Ryb2tlOiMxODE4MTg7c3Ryb2tlLXdpZHRoOjEuMDsiLz48cG9seWdvbiBmaWxsPSIjMTgxODE4IiBwb2ludHM9IjI3MSwxNDMuMjcsMjc1LDEzNC4yNywyNzEsMTM4LjI3LDI2NywxMzQuMjcsMjcxLDE0My4yNyIgc3R5bGU9InN0cm9rZTojMTgxODE4O3N0cm9rZS13aWR0aDoxLjA7Ii8+PC9nPjwhLS1saW5rIFN0dWRlbnQgdG8gVUMzLS0+PGcgaWQ9ImxpbmtfU3R1ZGVudF9VQzMiPjxwYXRoIGQ9Ik0yNDYuMzYsNjAuMTkgQzIxMy4zOCw4MS44NSAxNjAuMzA0MywxMTYuNzI1IDEyNy43ODQzLDEzOC4wOTUgIiBmaWxsPSJub25lIiBpZD0iU3R1ZGVudC10by1VQzMiIHN0eWxlPSJzdHJva2U6IzE4MTgxODtzdHJva2Utd2lkdGg6MS4wOyIvPjxwb2x5Z29uIGZpbGw9IiMxODE4MTgiIHBvaW50cz0iMTIyLjc3LDE0MS4zOSwxMzIuNDg4MSwxMzkuNzkwMywxMjYuOTQ4NSwxMzguNjQ0MSwxMjguMDk0NywxMzMuMTA0NiwxMjIuNzcsMTQxLjM5IiBzdHlsZT0ic3Ryb2tlOiMxODE4MTg7c3Ryb2tlLXdpZHRoOjEuMDsiLz48L2c+PCEtLVNSQz1bSXFta29JekkyMnVmSktkREEtN1lBYWZEQmFkQ0l5ejlMTjNFSTJuOW9ZekhnRVBJSzJXakphckVCNHZMSzBmOUJJdzFvSVdmOTFPaFgzZVI4aWs3NWdVWUlIaVhJbVNLdlBUYmZnR2drQU1jZllHYjljVDNySFhwck45bkdQc1dlQWpoMXBPTGJNLTRuWlM2MDAwMF0tLT48L2c+PC9zdmc+;" vertex="1" parent="1">
            <mxGeometry x="-3330" y="-3080" width="517" height="197" as="geometry" />
          </mxCell>
        </UserObject>
        <UserObject label="" plantUmlData="{&#xa;  &quot;data&quot;: &quot;@startuml\nactor Teacher\n\nrectangle Chatbot {\n  usecase \&quot;Provide Insights\&quot; as UC1\n  usecase \&quot;Provide Feedback\&quot; as UC2\n}\n\nTeacher --&gt; UC1\nTeacher --&gt; UC2\n@enduml\n&quot;,&#xa;  &quot;format&quot;: &quot;svg&quot;&#xa;}" id="qCDn8xHbFD4i_Utl2qND-13">
          <mxCell style="shape=image;noLabel=1;verticalAlign=top;aspect=fixed;imageAspect=0;image=data:image/svg+xml,PD94bWwgdmVyc2lvbj0iMS4wIiBlbmNvZGluZz0idXMtYXNjaWkiIHN0YW5kYWxvbmU9Im5vIj8+PHN2ZyB4bWxucz0iaHR0cDovL3d3dy53My5vcmcvMjAwMC9zdmciIHhtbG5zOnhsaW5rPSJodHRwOi8vd3d3LnczLm9yZy8xOTk5L3hsaW5rIiBjb250ZW50U3R5bGVUeXBlPSJ0ZXh0L2NzcyIgaGVpZ2h0PSIxOTdweCIgcHJlc2VydmVBc3BlY3RSYXRpbz0ibm9uZSIgc3R5bGU9IndpZHRoOjM4M3B4O2hlaWdodDoxOTdweDtiYWNrZ3JvdW5kOiNGRkZGRkY7IiB2ZXJzaW9uPSIxLjEiIHZpZXdCb3g9IjAgMCAzODMgMTk3IiB3aWR0aD0iMzgzcHgiIHpvb21BbmRQYW49Im1hZ25pZnkiPjxkZWZzLz48Zz48IS0tY2x1c3RlciBDaGF0Ym90LS0+PGcgaWQ9ImNsdXN0ZXJfQ2hhdGJvdCI+PHJlY3QgZmlsbD0ibm9uZSIgaGVpZ2h0PSI4NCIgcng9IjIuNSIgcnk9IjIuNSIgc3R5bGU9InN0cm9rZTojMTgxODE4O3N0cm9rZS13aWR0aDoxLjA7IiB3aWR0aD0iMzcwIiB4PSI3IiB5PSIxMDcuNSIvPjx0ZXh0IGZpbGw9IiMwMDAwMDAiIGZvbnQtZmFtaWx5PSJzYW5zLXNlcmlmIiBmb250LXNpemU9IjE0IiBmb250LXdlaWdodD0iYm9sZCIgbGVuZ3RoQWRqdXN0PSJzcGFjaW5nIiB0ZXh0TGVuZ3RoPSI0OSIgeD0iMTY3LjUiIHk9IjEyMi43MzQ0Ij5DaGF0Ym90PC90ZXh0PjwvZz48ZyBpZD0iZWxlbV9VQzEiPjxlbGxpcHNlIGN4PSIyODQuOTM4NCIgY3k9IjE1Ny45ODc3IiBmaWxsPSIjRjFGMUYxIiByeD0iNzUuNDM4NCIgcnk9IjE3LjQ4NzciIHN0eWxlPSJzdHJva2U6IzE4MTgxODtzdHJva2Utd2lkdGg6MC41OyIvPjx0ZXh0IGZpbGw9IiMwMDAwMDAiIGZvbnQtZmFtaWx5PSJzYW5zLXNlcmlmIiBmb250LXNpemU9IjE0IiBsZW5ndGhBZGp1c3Q9InNwYWNpbmciIHRleHRMZW5ndGg9IjExMiIgeD0iMjI4LjkzODQiIHk9IjE2MS43Mjk5Ij5Qcm92aWRlIEluc2lnaHRzPC90ZXh0PjwvZz48ZyBpZD0iZWxlbV9VQzIiPjxlbGxpcHNlIGN4PSI5OC45Mzg0IiBjeT0iMTU3Ljk4NzciIGZpbGw9IiNGMUYxRjEiIHJ4PSI3NS40Mzg0IiByeT0iMTcuNDg3NyIgc3R5bGU9InN0cm9rZTojMTgxODE4O3N0cm9rZS13aWR0aDowLjU7Ii8+PHRleHQgZmlsbD0iIzAwMDAwMCIgZm9udC1mYW1pbHk9InNhbnMtc2VyaWYiIGZvbnQtc2l6ZT0iMTQiIGxlbmd0aEFkanVzdD0ic3BhY2luZyIgdGV4dExlbmd0aD0iMTEyIiB4PSI0Mi45Mzg0IiB5PSIxNjEuNzI5OSI+UHJvdmlkZSBGZWVkYmFjazwvdGV4dD48L2c+PCEtLWVudGl0eSBUZWFjaGVyLS0+PGcgaWQ9ImVsZW1fVGVhY2hlciI+PGVsbGlwc2UgY3g9IjE5MiIgY3k9IjE0IiBmaWxsPSIjRjFGMUYxIiByeD0iOCIgcnk9IjgiIHN0eWxlPSJzdHJva2U6IzE4MTgxODtzdHJva2Utd2lkdGg6MC41OyIvPjxwYXRoIGQ9Ik0xOTIsMjIgTDE5Miw0OSBNMTc5LDMwIEwyMDUsMzAgTTE5Miw0OSBMMTc5LDY0IE0xOTIsNDkgTDIwNSw2NCAiIGZpbGw9Im5vbmUiIHN0eWxlPSJzdHJva2U6IzE4MTgxODtzdHJva2Utd2lkdGg6MC41OyIvPjx0ZXh0IGZpbGw9IiMwMDAwMDAiIGZvbnQtZmFtaWx5PSJzYW5zLXNlcmlmIiBmb250LXNpemU9IjE0IiBsZW5ndGhBZGp1c3Q9InNwYWNpbmciIHRleHRMZW5ndGg9IjQ5IiB4PSIxNjcuNSIgeT0iNzguNzM0NCI+VGVhY2hlcjwvdGV4dD48L2c+PCEtLWxpbmsgVGVhY2hlciB0byBVQzEtLT48ZyBpZD0ibGlua19UZWFjaGVyX1VDMSI+PHBhdGggZD0iTTIxNi42OCw3My45OSBDMjM0LjIyLDk1LjMgMjUzLjMwNTcsMTE4LjQ5ODUgMjY3LjYzNTcsMTM1Ljg5ODUgIiBmaWxsPSJub25lIiBpZD0iVGVhY2hlci10by1VQzEiIHN0eWxlPSJzdHJva2U6IzE4MTgxODtzdHJva2Utd2lkdGg6MS4wOyIvPjxwb2x5Z29uIGZpbGw9IiMxODE4MTgiIHBvaW50cz0iMjcxLjQ1LDE0MC41MywyNjguODE2MiwxMzEuMDM5OSwyNjguMjcxNCwxMzYuNjcwNCwyNjIuNjQwOCwxMzYuMTI1NiwyNzEuNDUsMTQwLjUzIiBzdHlsZT0ic3Ryb2tlOiMxODE4MTg7c3Ryb2tlLXdpZHRoOjEuMDsiLz48L2c+PCEtLWxpbmsgVGVhY2hlciB0byBVQzItLT48ZyBpZD0ibGlua19UZWFjaGVyX1VDMiI+PHBhdGggZD0iTTE2Ny4zMiw3My45OSBDMTQ5Ljc4LDk1LjMgMTMwLjY5NDMsMTE4LjQ5ODUgMTE2LjM2NDMsMTM1Ljg5ODUgIiBmaWxsPSJub25lIiBpZD0iVGVhY2hlci10by1VQzIiIHN0eWxlPSJzdHJva2U6IzE4MTgxODtzdHJva2Utd2lkdGg6MS4wOyIvPjxwb2x5Z29uIGZpbGw9IiMxODE4MTgiIHBvaW50cz0iMTEyLjU1LDE0MC41MywxMjEuMzU5MiwxMzYuMTI1NiwxMTUuNzI4NiwxMzYuNjcwNCwxMTUuMTgzOCwxMzEuMDM5OSwxMTIuNTUsMTQwLjUzIiBzdHlsZT0ic3Ryb2tlOiMxODE4MTg7c3Ryb2tlLXdpZHRoOjEuMDsiLz48L2c+PCEtLVNSQz1bSXFta29JekkyNGJESkN2OEJVQllBYWZEQmFkQ0l5ejlMTjNFSTJuOW9ZekhnRVBJSzJXakphckVCNHZMSzBlZW9ZX0JKNGJMeUNtaHBhcEZBMmJNS2FXaUxXWHJEaUljbllxckRJS2ZDSmFSZ2lROGd2UUIyc2dGV2d3azdMV1JBank4MDAwMF0tLT48L2c+PC9zdmc+;" vertex="1" parent="1">
            <mxGeometry x="-3280" y="-2750" width="383" height="197" as="geometry" />
          </mxCell>
        </UserObject>
        <mxCell id="qCDn8xHbFD4i_Utl2qND-14" value="&lt;span style=&quot;font-size: 48px;&quot;&gt;Use Case Diagram&lt;/span&gt;" style="text;html=1;align=center;verticalAlign=middle;whiteSpace=wrap;rounded=0;" vertex="1" parent="1">
          <mxGeometry x="-4070" y="-3230" width="520" height="30" as="geometry" />
        </mxCell>
        <mxCell id="qCDn8xHbFD4i_Utl2qND-15" value="&lt;span style=&quot;font-size: 48px;&quot;&gt;Activity Daigram&lt;/span&gt;" style="text;html=1;align=center;verticalAlign=middle;whiteSpace=wrap;rounded=0;" vertex="1" parent="1">
          <mxGeometry x="-4030" y="-5350" width="520" height="30" as="geometry" />
        </mxCell>
      </root>
    </mxGraphModel>
  </diagram>
</mxfile>
